%TF.GenerationSoftware,KiCad,Pcbnew,(5.1.6)-1*%
%TF.CreationDate,2020-08-05T10:29:03-07:00*%
%TF.ProjectId,vu_meter,76755f6d-6574-4657-922e-6b696361645f,rev?*%
%TF.SameCoordinates,Original*%
%TF.FileFunction,Soldermask,Top*%
%TF.FilePolarity,Negative*%
%FSLAX46Y46*%
G04 Gerber Fmt 4.6, Leading zero omitted, Abs format (unit mm)*
G04 Created by KiCad (PCBNEW (5.1.6)-1) date 2020-08-05 10:29:03*
%MOMM*%
%LPD*%
G01*
G04 APERTURE LIST*
%ADD10O,1.300000X2.100000*%
%ADD11O,0.900000X2.100000*%
%ADD12O,2.100000X1.300000*%
%ADD13O,1.700000X1.700000*%
%ADD14R,1.700000X1.700000*%
G04 APERTURE END LIST*
D10*
%TO.C,U3*%
X148336000Y-57862000D03*
X148336000Y-50342000D03*
X145796000Y-57862000D03*
X145796000Y-50342000D03*
X143256000Y-57862000D03*
X143256000Y-50342000D03*
X140716000Y-57862000D03*
X140716000Y-50342000D03*
X138176000Y-57862000D03*
X138176000Y-50342000D03*
X135636000Y-57862000D03*
X135636000Y-50342000D03*
X133096000Y-57862000D03*
X133096000Y-50342000D03*
X130556000Y-57862000D03*
X130556000Y-50342000D03*
X128016000Y-57862000D03*
X128016000Y-50342000D03*
%TD*%
%TO.C,U2*%
X122936000Y-58116000D03*
X122936000Y-50596000D03*
X120396000Y-58116000D03*
X120396000Y-50596000D03*
X117856000Y-58116000D03*
X117856000Y-50596000D03*
X115316000Y-58116000D03*
X115316000Y-50596000D03*
X112776000Y-58116000D03*
X112776000Y-50596000D03*
X110236000Y-58116000D03*
X110236000Y-50596000D03*
X107696000Y-58116000D03*
X107696000Y-50596000D03*
X105156000Y-58116000D03*
X105156000Y-50596000D03*
X102616000Y-58116000D03*
X102616000Y-50596000D03*
%TD*%
D11*
%TO.C,U1*%
X127000000Y-81230000D03*
X127000000Y-73710000D03*
X124460000Y-81230000D03*
X124460000Y-73710000D03*
X121920000Y-81230000D03*
X121920000Y-73710000D03*
X119380000Y-81230000D03*
X119380000Y-73710000D03*
%TD*%
%TO.C,R21*%
G36*
G01*
X98525250Y-82404000D02*
X97562750Y-82404000D01*
G75*
G02*
X97294000Y-82135250I0J268750D01*
G01*
X97294000Y-81597750D01*
G75*
G02*
X97562750Y-81329000I268750J0D01*
G01*
X98525250Y-81329000D01*
G75*
G02*
X98794000Y-81597750I0J-268750D01*
G01*
X98794000Y-82135250D01*
G75*
G02*
X98525250Y-82404000I-268750J0D01*
G01*
G37*
G36*
G01*
X98525250Y-84279000D02*
X97562750Y-84279000D01*
G75*
G02*
X97294000Y-84010250I0J268750D01*
G01*
X97294000Y-83472750D01*
G75*
G02*
X97562750Y-83204000I268750J0D01*
G01*
X98525250Y-83204000D01*
G75*
G02*
X98794000Y-83472750I0J-268750D01*
G01*
X98794000Y-84010250D01*
G75*
G02*
X98525250Y-84279000I-268750J0D01*
G01*
G37*
%TD*%
%TO.C,R20*%
G36*
G01*
X144245250Y-82404000D02*
X143282750Y-82404000D01*
G75*
G02*
X143014000Y-82135250I0J268750D01*
G01*
X143014000Y-81597750D01*
G75*
G02*
X143282750Y-81329000I268750J0D01*
G01*
X144245250Y-81329000D01*
G75*
G02*
X144514000Y-81597750I0J-268750D01*
G01*
X144514000Y-82135250D01*
G75*
G02*
X144245250Y-82404000I-268750J0D01*
G01*
G37*
G36*
G01*
X144245250Y-84279000D02*
X143282750Y-84279000D01*
G75*
G02*
X143014000Y-84010250I0J268750D01*
G01*
X143014000Y-83472750D01*
G75*
G02*
X143282750Y-83204000I268750J0D01*
G01*
X144245250Y-83204000D01*
G75*
G02*
X144514000Y-83472750I0J-268750D01*
G01*
X144514000Y-84010250D01*
G75*
G02*
X144245250Y-84279000I-268750J0D01*
G01*
G37*
%TD*%
%TO.C,R19*%
G36*
G01*
X106064000Y-75665250D02*
X106064000Y-74702750D01*
G75*
G02*
X106332750Y-74434000I268750J0D01*
G01*
X106870250Y-74434000D01*
G75*
G02*
X107139000Y-74702750I0J-268750D01*
G01*
X107139000Y-75665250D01*
G75*
G02*
X106870250Y-75934000I-268750J0D01*
G01*
X106332750Y-75934000D01*
G75*
G02*
X106064000Y-75665250I0J268750D01*
G01*
G37*
G36*
G01*
X104189000Y-75665250D02*
X104189000Y-74702750D01*
G75*
G02*
X104457750Y-74434000I268750J0D01*
G01*
X104995250Y-74434000D01*
G75*
G02*
X105264000Y-74702750I0J-268750D01*
G01*
X105264000Y-75665250D01*
G75*
G02*
X104995250Y-75934000I-268750J0D01*
G01*
X104457750Y-75934000D01*
G75*
G02*
X104189000Y-75665250I0J268750D01*
G01*
G37*
%TD*%
%TO.C,R18*%
G36*
G01*
X151276000Y-75665250D02*
X151276000Y-74702750D01*
G75*
G02*
X151544750Y-74434000I268750J0D01*
G01*
X152082250Y-74434000D01*
G75*
G02*
X152351000Y-74702750I0J-268750D01*
G01*
X152351000Y-75665250D01*
G75*
G02*
X152082250Y-75934000I-268750J0D01*
G01*
X151544750Y-75934000D01*
G75*
G02*
X151276000Y-75665250I0J268750D01*
G01*
G37*
G36*
G01*
X149401000Y-75665250D02*
X149401000Y-74702750D01*
G75*
G02*
X149669750Y-74434000I268750J0D01*
G01*
X150207250Y-74434000D01*
G75*
G02*
X150476000Y-74702750I0J-268750D01*
G01*
X150476000Y-75665250D01*
G75*
G02*
X150207250Y-75934000I-268750J0D01*
G01*
X149669750Y-75934000D01*
G75*
G02*
X149401000Y-75665250I0J268750D01*
G01*
G37*
%TD*%
%TO.C,R17*%
G36*
G01*
X99714000Y-75665250D02*
X99714000Y-74702750D01*
G75*
G02*
X99982750Y-74434000I268750J0D01*
G01*
X100520250Y-74434000D01*
G75*
G02*
X100789000Y-74702750I0J-268750D01*
G01*
X100789000Y-75665250D01*
G75*
G02*
X100520250Y-75934000I-268750J0D01*
G01*
X99982750Y-75934000D01*
G75*
G02*
X99714000Y-75665250I0J268750D01*
G01*
G37*
G36*
G01*
X97839000Y-75665250D02*
X97839000Y-74702750D01*
G75*
G02*
X98107750Y-74434000I268750J0D01*
G01*
X98645250Y-74434000D01*
G75*
G02*
X98914000Y-74702750I0J-268750D01*
G01*
X98914000Y-75665250D01*
G75*
G02*
X98645250Y-75934000I-268750J0D01*
G01*
X98107750Y-75934000D01*
G75*
G02*
X97839000Y-75665250I0J268750D01*
G01*
G37*
%TD*%
%TO.C,R16*%
G36*
G01*
X144672000Y-75665250D02*
X144672000Y-74702750D01*
G75*
G02*
X144940750Y-74434000I268750J0D01*
G01*
X145478250Y-74434000D01*
G75*
G02*
X145747000Y-74702750I0J-268750D01*
G01*
X145747000Y-75665250D01*
G75*
G02*
X145478250Y-75934000I-268750J0D01*
G01*
X144940750Y-75934000D01*
G75*
G02*
X144672000Y-75665250I0J268750D01*
G01*
G37*
G36*
G01*
X142797000Y-75665250D02*
X142797000Y-74702750D01*
G75*
G02*
X143065750Y-74434000I268750J0D01*
G01*
X143603250Y-74434000D01*
G75*
G02*
X143872000Y-74702750I0J-268750D01*
G01*
X143872000Y-75665250D01*
G75*
G02*
X143603250Y-75934000I-268750J0D01*
G01*
X143065750Y-75934000D01*
G75*
G02*
X142797000Y-75665250I0J268750D01*
G01*
G37*
%TD*%
%TO.C,R15*%
G36*
G01*
X121050000Y-86841250D02*
X121050000Y-85878750D01*
G75*
G02*
X121318750Y-85610000I268750J0D01*
G01*
X121856250Y-85610000D01*
G75*
G02*
X122125000Y-85878750I0J-268750D01*
G01*
X122125000Y-86841250D01*
G75*
G02*
X121856250Y-87110000I-268750J0D01*
G01*
X121318750Y-87110000D01*
G75*
G02*
X121050000Y-86841250I0J268750D01*
G01*
G37*
G36*
G01*
X119175000Y-86841250D02*
X119175000Y-85878750D01*
G75*
G02*
X119443750Y-85610000I268750J0D01*
G01*
X119981250Y-85610000D01*
G75*
G02*
X120250000Y-85878750I0J-268750D01*
G01*
X120250000Y-86841250D01*
G75*
G02*
X119981250Y-87110000I-268750J0D01*
G01*
X119443750Y-87110000D01*
G75*
G02*
X119175000Y-86841250I0J268750D01*
G01*
G37*
%TD*%
%TO.C,R14*%
G36*
G01*
X118080500Y-69569250D02*
X118080500Y-68606750D01*
G75*
G02*
X118349250Y-68338000I268750J0D01*
G01*
X118886750Y-68338000D01*
G75*
G02*
X119155500Y-68606750I0J-268750D01*
G01*
X119155500Y-69569250D01*
G75*
G02*
X118886750Y-69838000I-268750J0D01*
G01*
X118349250Y-69838000D01*
G75*
G02*
X118080500Y-69569250I0J268750D01*
G01*
G37*
G36*
G01*
X116205500Y-69569250D02*
X116205500Y-68606750D01*
G75*
G02*
X116474250Y-68338000I268750J0D01*
G01*
X117011750Y-68338000D01*
G75*
G02*
X117280500Y-68606750I0J-268750D01*
G01*
X117280500Y-69569250D01*
G75*
G02*
X117011750Y-69838000I-268750J0D01*
G01*
X116474250Y-69838000D01*
G75*
G02*
X116205500Y-69569250I0J268750D01*
G01*
G37*
%TD*%
%TO.C,R13*%
G36*
G01*
X125408500Y-85878750D02*
X125408500Y-86841250D01*
G75*
G02*
X125139750Y-87110000I-268750J0D01*
G01*
X124602250Y-87110000D01*
G75*
G02*
X124333500Y-86841250I0J268750D01*
G01*
X124333500Y-85878750D01*
G75*
G02*
X124602250Y-85610000I268750J0D01*
G01*
X125139750Y-85610000D01*
G75*
G02*
X125408500Y-85878750I0J-268750D01*
G01*
G37*
G36*
G01*
X127283500Y-85878750D02*
X127283500Y-86841250D01*
G75*
G02*
X127014750Y-87110000I-268750J0D01*
G01*
X126477250Y-87110000D01*
G75*
G02*
X126208500Y-86841250I0J268750D01*
G01*
X126208500Y-85878750D01*
G75*
G02*
X126477250Y-85610000I268750J0D01*
G01*
X127014750Y-85610000D01*
G75*
G02*
X127283500Y-85878750I0J-268750D01*
G01*
G37*
%TD*%
%TO.C,R12*%
G36*
G01*
X121852500Y-68606750D02*
X121852500Y-69569250D01*
G75*
G02*
X121583750Y-69838000I-268750J0D01*
G01*
X121046250Y-69838000D01*
G75*
G02*
X120777500Y-69569250I0J268750D01*
G01*
X120777500Y-68606750D01*
G75*
G02*
X121046250Y-68338000I268750J0D01*
G01*
X121583750Y-68338000D01*
G75*
G02*
X121852500Y-68606750I0J-268750D01*
G01*
G37*
G36*
G01*
X123727500Y-68606750D02*
X123727500Y-69569250D01*
G75*
G02*
X123458750Y-69838000I-268750J0D01*
G01*
X122921250Y-69838000D01*
G75*
G02*
X122652500Y-69569250I0J268750D01*
G01*
X122652500Y-68606750D01*
G75*
G02*
X122921250Y-68338000I268750J0D01*
G01*
X123458750Y-68338000D01*
G75*
G02*
X123727500Y-68606750I0J-268750D01*
G01*
G37*
%TD*%
%TO.C,R11*%
G36*
G01*
X110008750Y-76346000D02*
X110971250Y-76346000D01*
G75*
G02*
X111240000Y-76614750I0J-268750D01*
G01*
X111240000Y-77152250D01*
G75*
G02*
X110971250Y-77421000I-268750J0D01*
G01*
X110008750Y-77421000D01*
G75*
G02*
X109740000Y-77152250I0J268750D01*
G01*
X109740000Y-76614750D01*
G75*
G02*
X110008750Y-76346000I268750J0D01*
G01*
G37*
G36*
G01*
X110008750Y-74471000D02*
X110971250Y-74471000D01*
G75*
G02*
X111240000Y-74739750I0J-268750D01*
G01*
X111240000Y-75277250D01*
G75*
G02*
X110971250Y-75546000I-268750J0D01*
G01*
X110008750Y-75546000D01*
G75*
G02*
X109740000Y-75277250I0J268750D01*
G01*
X109740000Y-74739750D01*
G75*
G02*
X110008750Y-74471000I268750J0D01*
G01*
G37*
%TD*%
%TO.C,R10*%
G36*
G01*
X127224500Y-66013250D02*
X127224500Y-65050750D01*
G75*
G02*
X127493250Y-64782000I268750J0D01*
G01*
X128030750Y-64782000D01*
G75*
G02*
X128299500Y-65050750I0J-268750D01*
G01*
X128299500Y-66013250D01*
G75*
G02*
X128030750Y-66282000I-268750J0D01*
G01*
X127493250Y-66282000D01*
G75*
G02*
X127224500Y-66013250I0J268750D01*
G01*
G37*
G36*
G01*
X125349500Y-66013250D02*
X125349500Y-65050750D01*
G75*
G02*
X125618250Y-64782000I268750J0D01*
G01*
X126155750Y-64782000D01*
G75*
G02*
X126424500Y-65050750I0J-268750D01*
G01*
X126424500Y-66013250D01*
G75*
G02*
X126155750Y-66282000I-268750J0D01*
G01*
X125618250Y-66282000D01*
G75*
G02*
X125349500Y-66013250I0J268750D01*
G01*
G37*
%TD*%
%TO.C,R9*%
G36*
G01*
X122652500Y-66013250D02*
X122652500Y-65050750D01*
G75*
G02*
X122921250Y-64782000I268750J0D01*
G01*
X123458750Y-64782000D01*
G75*
G02*
X123727500Y-65050750I0J-268750D01*
G01*
X123727500Y-66013250D01*
G75*
G02*
X123458750Y-66282000I-268750J0D01*
G01*
X122921250Y-66282000D01*
G75*
G02*
X122652500Y-66013250I0J268750D01*
G01*
G37*
G36*
G01*
X120777500Y-66013250D02*
X120777500Y-65050750D01*
G75*
G02*
X121046250Y-64782000I268750J0D01*
G01*
X121583750Y-64782000D01*
G75*
G02*
X121852500Y-65050750I0J-268750D01*
G01*
X121852500Y-66013250D01*
G75*
G02*
X121583750Y-66282000I-268750J0D01*
G01*
X121046250Y-66282000D01*
G75*
G02*
X120777500Y-66013250I0J268750D01*
G01*
G37*
%TD*%
%TO.C,R8*%
G36*
G01*
X126130000Y-91921250D02*
X126130000Y-90958750D01*
G75*
G02*
X126398750Y-90690000I268750J0D01*
G01*
X126936250Y-90690000D01*
G75*
G02*
X127205000Y-90958750I0J-268750D01*
G01*
X127205000Y-91921250D01*
G75*
G02*
X126936250Y-92190000I-268750J0D01*
G01*
X126398750Y-92190000D01*
G75*
G02*
X126130000Y-91921250I0J268750D01*
G01*
G37*
G36*
G01*
X124255000Y-91921250D02*
X124255000Y-90958750D01*
G75*
G02*
X124523750Y-90690000I268750J0D01*
G01*
X125061250Y-90690000D01*
G75*
G02*
X125330000Y-90958750I0J-268750D01*
G01*
X125330000Y-91921250D01*
G75*
G02*
X125061250Y-92190000I-268750J0D01*
G01*
X124523750Y-92190000D01*
G75*
G02*
X124255000Y-91921250I0J268750D01*
G01*
G37*
%TD*%
%TO.C,R7*%
G36*
G01*
X121050000Y-91921250D02*
X121050000Y-90958750D01*
G75*
G02*
X121318750Y-90690000I268750J0D01*
G01*
X121856250Y-90690000D01*
G75*
G02*
X122125000Y-90958750I0J-268750D01*
G01*
X122125000Y-91921250D01*
G75*
G02*
X121856250Y-92190000I-268750J0D01*
G01*
X121318750Y-92190000D01*
G75*
G02*
X121050000Y-91921250I0J268750D01*
G01*
G37*
G36*
G01*
X119175000Y-91921250D02*
X119175000Y-90958750D01*
G75*
G02*
X119443750Y-90690000I268750J0D01*
G01*
X119981250Y-90690000D01*
G75*
G02*
X120250000Y-90958750I0J-268750D01*
G01*
X120250000Y-91921250D01*
G75*
G02*
X119981250Y-92190000I-268750J0D01*
G01*
X119443750Y-92190000D01*
G75*
G02*
X119175000Y-91921250I0J268750D01*
G01*
G37*
%TD*%
%TO.C,R6*%
G36*
G01*
X147854750Y-68296500D02*
X148817250Y-68296500D01*
G75*
G02*
X149086000Y-68565250I0J-268750D01*
G01*
X149086000Y-69102750D01*
G75*
G02*
X148817250Y-69371500I-268750J0D01*
G01*
X147854750Y-69371500D01*
G75*
G02*
X147586000Y-69102750I0J268750D01*
G01*
X147586000Y-68565250D01*
G75*
G02*
X147854750Y-68296500I268750J0D01*
G01*
G37*
G36*
G01*
X147854750Y-66421500D02*
X148817250Y-66421500D01*
G75*
G02*
X149086000Y-66690250I0J-268750D01*
G01*
X149086000Y-67227750D01*
G75*
G02*
X148817250Y-67496500I-268750J0D01*
G01*
X147854750Y-67496500D01*
G75*
G02*
X147586000Y-67227750I0J268750D01*
G01*
X147586000Y-66690250D01*
G75*
G02*
X147854750Y-66421500I268750J0D01*
G01*
G37*
%TD*%
%TO.C,R5*%
G36*
G01*
X117377500Y-65050750D02*
X117377500Y-66013250D01*
G75*
G02*
X117108750Y-66282000I-268750J0D01*
G01*
X116571250Y-66282000D01*
G75*
G02*
X116302500Y-66013250I0J268750D01*
G01*
X116302500Y-65050750D01*
G75*
G02*
X116571250Y-64782000I268750J0D01*
G01*
X117108750Y-64782000D01*
G75*
G02*
X117377500Y-65050750I0J-268750D01*
G01*
G37*
G36*
G01*
X119252500Y-65050750D02*
X119252500Y-66013250D01*
G75*
G02*
X118983750Y-66282000I-268750J0D01*
G01*
X118446250Y-66282000D01*
G75*
G02*
X118177500Y-66013250I0J268750D01*
G01*
X118177500Y-65050750D01*
G75*
G02*
X118446250Y-64782000I268750J0D01*
G01*
X118983750Y-64782000D01*
G75*
G02*
X119252500Y-65050750I0J-268750D01*
G01*
G37*
%TD*%
%TO.C,R4*%
G36*
G01*
X146490500Y-62256750D02*
X146490500Y-63219250D01*
G75*
G02*
X146221750Y-63488000I-268750J0D01*
G01*
X145684250Y-63488000D01*
G75*
G02*
X145415500Y-63219250I0J268750D01*
G01*
X145415500Y-62256750D01*
G75*
G02*
X145684250Y-61988000I268750J0D01*
G01*
X146221750Y-61988000D01*
G75*
G02*
X146490500Y-62256750I0J-268750D01*
G01*
G37*
G36*
G01*
X148365500Y-62256750D02*
X148365500Y-63219250D01*
G75*
G02*
X148096750Y-63488000I-268750J0D01*
G01*
X147559250Y-63488000D01*
G75*
G02*
X147290500Y-63219250I0J268750D01*
G01*
X147290500Y-62256750D01*
G75*
G02*
X147559250Y-61988000I268750J0D01*
G01*
X148096750Y-61988000D01*
G75*
G02*
X148365500Y-62256750I0J-268750D01*
G01*
G37*
%TD*%
%TO.C,R3*%
G36*
G01*
X142132000Y-63219250D02*
X142132000Y-62256750D01*
G75*
G02*
X142400750Y-61988000I268750J0D01*
G01*
X142938250Y-61988000D01*
G75*
G02*
X143207000Y-62256750I0J-268750D01*
G01*
X143207000Y-63219250D01*
G75*
G02*
X142938250Y-63488000I-268750J0D01*
G01*
X142400750Y-63488000D01*
G75*
G02*
X142132000Y-63219250I0J268750D01*
G01*
G37*
G36*
G01*
X140257000Y-63219250D02*
X140257000Y-62256750D01*
G75*
G02*
X140525750Y-61988000I268750J0D01*
G01*
X141063250Y-61988000D01*
G75*
G02*
X141332000Y-62256750I0J-268750D01*
G01*
X141332000Y-63219250D01*
G75*
G02*
X141063250Y-63488000I-268750J0D01*
G01*
X140525750Y-63488000D01*
G75*
G02*
X140257000Y-63219250I0J268750D01*
G01*
G37*
%TD*%
%TO.C,R2*%
G36*
G01*
X123473500Y-61748750D02*
X123473500Y-62711250D01*
G75*
G02*
X123204750Y-62980000I-268750J0D01*
G01*
X122667250Y-62980000D01*
G75*
G02*
X122398500Y-62711250I0J268750D01*
G01*
X122398500Y-61748750D01*
G75*
G02*
X122667250Y-61480000I268750J0D01*
G01*
X123204750Y-61480000D01*
G75*
G02*
X123473500Y-61748750I0J-268750D01*
G01*
G37*
G36*
G01*
X125348500Y-61748750D02*
X125348500Y-62711250D01*
G75*
G02*
X125079750Y-62980000I-268750J0D01*
G01*
X124542250Y-62980000D01*
G75*
G02*
X124273500Y-62711250I0J268750D01*
G01*
X124273500Y-61748750D01*
G75*
G02*
X124542250Y-61480000I268750J0D01*
G01*
X125079750Y-61480000D01*
G75*
G02*
X125348500Y-61748750I0J-268750D01*
G01*
G37*
%TD*%
%TO.C,R1*%
G36*
G01*
X119350500Y-62711250D02*
X119350500Y-61748750D01*
G75*
G02*
X119619250Y-61480000I268750J0D01*
G01*
X120156750Y-61480000D01*
G75*
G02*
X120425500Y-61748750I0J-268750D01*
G01*
X120425500Y-62711250D01*
G75*
G02*
X120156750Y-62980000I-268750J0D01*
G01*
X119619250Y-62980000D01*
G75*
G02*
X119350500Y-62711250I0J268750D01*
G01*
G37*
G36*
G01*
X117475500Y-62711250D02*
X117475500Y-61748750D01*
G75*
G02*
X117744250Y-61480000I268750J0D01*
G01*
X118281750Y-61480000D01*
G75*
G02*
X118550500Y-61748750I0J-268750D01*
G01*
X118550500Y-62711250D01*
G75*
G02*
X118281750Y-62980000I-268750J0D01*
G01*
X117744250Y-62980000D01*
G75*
G02*
X117475500Y-62711250I0J268750D01*
G01*
G37*
%TD*%
D12*
%TO.C,MK1*%
X110490000Y-79796000D03*
X110490000Y-84796000D03*
%TD*%
%TO.C,J1*%
X91948000Y-49530000D03*
X91948000Y-54530000D03*
%TD*%
D13*
%TO.C,D6*%
X105664000Y-78994000D03*
D14*
X98044000Y-78994000D03*
%TD*%
D13*
%TO.C,D5*%
X151384000Y-78994000D03*
D14*
X143764000Y-78994000D03*
%TD*%
D13*
%TO.C,D4*%
X92964000Y-75184000D03*
D14*
X92964000Y-82804000D03*
%TD*%
D13*
%TO.C,D3*%
X137922000Y-75438000D03*
D14*
X137922000Y-83058000D03*
%TD*%
D10*
%TO.C,D2*%
X148336000Y-45670000D03*
X148336000Y-38150000D03*
X145796000Y-45670000D03*
X145796000Y-38150000D03*
X143256000Y-45670000D03*
X143256000Y-38150000D03*
X140716000Y-45670000D03*
X140716000Y-38150000D03*
X138176000Y-45670000D03*
X138176000Y-38150000D03*
X135636000Y-45670000D03*
X135636000Y-38150000D03*
X133096000Y-45670000D03*
X133096000Y-38150000D03*
X130556000Y-45670000D03*
X130556000Y-38150000D03*
X128016000Y-45670000D03*
X128016000Y-38150000D03*
X125476000Y-45670000D03*
X125476000Y-38150000D03*
%TD*%
%TO.C,D1*%
X122936000Y-45670000D03*
X122936000Y-38150000D03*
X120396000Y-45670000D03*
X120396000Y-38150000D03*
X117856000Y-45670000D03*
X117856000Y-38150000D03*
X115316000Y-45670000D03*
X115316000Y-38150000D03*
X112776000Y-45670000D03*
X112776000Y-38150000D03*
X110236000Y-45670000D03*
X110236000Y-38150000D03*
X107696000Y-45670000D03*
X107696000Y-38150000D03*
X105156000Y-45670000D03*
X105156000Y-38150000D03*
X102616000Y-45670000D03*
X102616000Y-38150000D03*
X100076000Y-45670000D03*
X100076000Y-38150000D03*
%TD*%
%TO.C,C13*%
G36*
G01*
X106145250Y-82404000D02*
X105182750Y-82404000D01*
G75*
G02*
X104914000Y-82135250I0J268750D01*
G01*
X104914000Y-81597750D01*
G75*
G02*
X105182750Y-81329000I268750J0D01*
G01*
X106145250Y-81329000D01*
G75*
G02*
X106414000Y-81597750I0J-268750D01*
G01*
X106414000Y-82135250D01*
G75*
G02*
X106145250Y-82404000I-268750J0D01*
G01*
G37*
G36*
G01*
X106145250Y-84279000D02*
X105182750Y-84279000D01*
G75*
G02*
X104914000Y-84010250I0J268750D01*
G01*
X104914000Y-83472750D01*
G75*
G02*
X105182750Y-83204000I268750J0D01*
G01*
X106145250Y-83204000D01*
G75*
G02*
X106414000Y-83472750I0J-268750D01*
G01*
X106414000Y-84010250D01*
G75*
G02*
X106145250Y-84279000I-268750J0D01*
G01*
G37*
%TD*%
%TO.C,C12*%
G36*
G01*
X151865250Y-82404000D02*
X150902750Y-82404000D01*
G75*
G02*
X150634000Y-82135250I0J268750D01*
G01*
X150634000Y-81597750D01*
G75*
G02*
X150902750Y-81329000I268750J0D01*
G01*
X151865250Y-81329000D01*
G75*
G02*
X152134000Y-81597750I0J-268750D01*
G01*
X152134000Y-82135250D01*
G75*
G02*
X151865250Y-82404000I-268750J0D01*
G01*
G37*
G36*
G01*
X151865250Y-84279000D02*
X150902750Y-84279000D01*
G75*
G02*
X150634000Y-84010250I0J268750D01*
G01*
X150634000Y-83472750D01*
G75*
G02*
X150902750Y-83204000I268750J0D01*
G01*
X151865250Y-83204000D01*
G75*
G02*
X152134000Y-83472750I0J-268750D01*
G01*
X152134000Y-84010250D01*
G75*
G02*
X151865250Y-84279000I-268750J0D01*
G01*
G37*
%TD*%
%TO.C,C11*%
G36*
G01*
X116813250Y-84865500D02*
X115850750Y-84865500D01*
G75*
G02*
X115582000Y-84596750I0J268750D01*
G01*
X115582000Y-84059250D01*
G75*
G02*
X115850750Y-83790500I268750J0D01*
G01*
X116813250Y-83790500D01*
G75*
G02*
X117082000Y-84059250I0J-268750D01*
G01*
X117082000Y-84596750D01*
G75*
G02*
X116813250Y-84865500I-268750J0D01*
G01*
G37*
G36*
G01*
X116813250Y-86740500D02*
X115850750Y-86740500D01*
G75*
G02*
X115582000Y-86471750I0J268750D01*
G01*
X115582000Y-85934250D01*
G75*
G02*
X115850750Y-85665500I268750J0D01*
G01*
X116813250Y-85665500D01*
G75*
G02*
X117082000Y-85934250I0J-268750D01*
G01*
X117082000Y-86471750D01*
G75*
G02*
X116813250Y-86740500I-268750J0D01*
G01*
G37*
%TD*%
%TO.C,C10*%
G36*
G01*
X132480000Y-74141250D02*
X132480000Y-73178750D01*
G75*
G02*
X132748750Y-72910000I268750J0D01*
G01*
X133286250Y-72910000D01*
G75*
G02*
X133555000Y-73178750I0J-268750D01*
G01*
X133555000Y-74141250D01*
G75*
G02*
X133286250Y-74410000I-268750J0D01*
G01*
X132748750Y-74410000D01*
G75*
G02*
X132480000Y-74141250I0J268750D01*
G01*
G37*
G36*
G01*
X130605000Y-74141250D02*
X130605000Y-73178750D01*
G75*
G02*
X130873750Y-72910000I268750J0D01*
G01*
X131411250Y-72910000D01*
G75*
G02*
X131680000Y-73178750I0J-268750D01*
G01*
X131680000Y-74141250D01*
G75*
G02*
X131411250Y-74410000I-268750J0D01*
G01*
X130873750Y-74410000D01*
G75*
G02*
X130605000Y-74141250I0J268750D01*
G01*
G37*
%TD*%
%TO.C,C9*%
G36*
G01*
X130410000Y-85878750D02*
X130410000Y-86841250D01*
G75*
G02*
X130141250Y-87110000I-268750J0D01*
G01*
X129603750Y-87110000D01*
G75*
G02*
X129335000Y-86841250I0J268750D01*
G01*
X129335000Y-85878750D01*
G75*
G02*
X129603750Y-85610000I268750J0D01*
G01*
X130141250Y-85610000D01*
G75*
G02*
X130410000Y-85878750I0J-268750D01*
G01*
G37*
G36*
G01*
X132285000Y-85878750D02*
X132285000Y-86841250D01*
G75*
G02*
X132016250Y-87110000I-268750J0D01*
G01*
X131478750Y-87110000D01*
G75*
G02*
X131210000Y-86841250I0J268750D01*
G01*
X131210000Y-85878750D01*
G75*
G02*
X131478750Y-85610000I268750J0D01*
G01*
X132016250Y-85610000D01*
G75*
G02*
X132285000Y-85878750I0J-268750D01*
G01*
G37*
%TD*%
%TO.C,C8*%
G36*
G01*
X126521500Y-68606750D02*
X126521500Y-69569250D01*
G75*
G02*
X126252750Y-69838000I-268750J0D01*
G01*
X125715250Y-69838000D01*
G75*
G02*
X125446500Y-69569250I0J268750D01*
G01*
X125446500Y-68606750D01*
G75*
G02*
X125715250Y-68338000I268750J0D01*
G01*
X126252750Y-68338000D01*
G75*
G02*
X126521500Y-68606750I0J-268750D01*
G01*
G37*
G36*
G01*
X128396500Y-68606750D02*
X128396500Y-69569250D01*
G75*
G02*
X128127750Y-69838000I-268750J0D01*
G01*
X127590250Y-69838000D01*
G75*
G02*
X127321500Y-69569250I0J268750D01*
G01*
X127321500Y-68606750D01*
G75*
G02*
X127590250Y-68338000I268750J0D01*
G01*
X128127750Y-68338000D01*
G75*
G02*
X128396500Y-68606750I0J-268750D01*
G01*
G37*
%TD*%
%TO.C,C7*%
G36*
G01*
X115088750Y-79315500D02*
X116051250Y-79315500D01*
G75*
G02*
X116320000Y-79584250I0J-268750D01*
G01*
X116320000Y-80121750D01*
G75*
G02*
X116051250Y-80390500I-268750J0D01*
G01*
X115088750Y-80390500D01*
G75*
G02*
X114820000Y-80121750I0J268750D01*
G01*
X114820000Y-79584250D01*
G75*
G02*
X115088750Y-79315500I268750J0D01*
G01*
G37*
G36*
G01*
X115088750Y-77440500D02*
X116051250Y-77440500D01*
G75*
G02*
X116320000Y-77709250I0J-268750D01*
G01*
X116320000Y-78246750D01*
G75*
G02*
X116051250Y-78515500I-268750J0D01*
G01*
X115088750Y-78515500D01*
G75*
G02*
X114820000Y-78246750I0J268750D01*
G01*
X114820000Y-77709250D01*
G75*
G02*
X115088750Y-77440500I268750J0D01*
G01*
G37*
%TD*%
%TO.C,C6*%
G36*
G01*
X130582750Y-78964500D02*
X131545250Y-78964500D01*
G75*
G02*
X131814000Y-79233250I0J-268750D01*
G01*
X131814000Y-79770750D01*
G75*
G02*
X131545250Y-80039500I-268750J0D01*
G01*
X130582750Y-80039500D01*
G75*
G02*
X130314000Y-79770750I0J268750D01*
G01*
X130314000Y-79233250D01*
G75*
G02*
X130582750Y-78964500I268750J0D01*
G01*
G37*
G36*
G01*
X130582750Y-77089500D02*
X131545250Y-77089500D01*
G75*
G02*
X131814000Y-77358250I0J-268750D01*
G01*
X131814000Y-77895750D01*
G75*
G02*
X131545250Y-78164500I-268750J0D01*
G01*
X130582750Y-78164500D01*
G75*
G02*
X130314000Y-77895750I0J268750D01*
G01*
X130314000Y-77358250D01*
G75*
G02*
X130582750Y-77089500I268750J0D01*
G01*
G37*
%TD*%
%TO.C,C5*%
G36*
G01*
X131601500Y-66320750D02*
X131601500Y-67283250D01*
G75*
G02*
X131332750Y-67552000I-268750J0D01*
G01*
X130795250Y-67552000D01*
G75*
G02*
X130526500Y-67283250I0J268750D01*
G01*
X130526500Y-66320750D01*
G75*
G02*
X130795250Y-66052000I268750J0D01*
G01*
X131332750Y-66052000D01*
G75*
G02*
X131601500Y-66320750I0J-268750D01*
G01*
G37*
G36*
G01*
X133476500Y-66320750D02*
X133476500Y-67283250D01*
G75*
G02*
X133207750Y-67552000I-268750J0D01*
G01*
X132670250Y-67552000D01*
G75*
G02*
X132401500Y-67283250I0J268750D01*
G01*
X132401500Y-66320750D01*
G75*
G02*
X132670250Y-66052000I268750J0D01*
G01*
X133207750Y-66052000D01*
G75*
G02*
X133476500Y-66320750I0J-268750D01*
G01*
G37*
%TD*%
%TO.C,C4*%
G36*
G01*
X106201500Y-62002750D02*
X106201500Y-62965250D01*
G75*
G02*
X105932750Y-63234000I-268750J0D01*
G01*
X105395250Y-63234000D01*
G75*
G02*
X105126500Y-62965250I0J268750D01*
G01*
X105126500Y-62002750D01*
G75*
G02*
X105395250Y-61734000I268750J0D01*
G01*
X105932750Y-61734000D01*
G75*
G02*
X106201500Y-62002750I0J-268750D01*
G01*
G37*
G36*
G01*
X108076500Y-62002750D02*
X108076500Y-62965250D01*
G75*
G02*
X107807750Y-63234000I-268750J0D01*
G01*
X107270250Y-63234000D01*
G75*
G02*
X107001500Y-62965250I0J268750D01*
G01*
X107001500Y-62002750D01*
G75*
G02*
X107270250Y-61734000I268750J0D01*
G01*
X107807750Y-61734000D01*
G75*
G02*
X108076500Y-62002750I0J-268750D01*
G01*
G37*
%TD*%
%TO.C,C3*%
G36*
G01*
X91466750Y-39340500D02*
X92429250Y-39340500D01*
G75*
G02*
X92698000Y-39609250I0J-268750D01*
G01*
X92698000Y-40146750D01*
G75*
G02*
X92429250Y-40415500I-268750J0D01*
G01*
X91466750Y-40415500D01*
G75*
G02*
X91198000Y-40146750I0J268750D01*
G01*
X91198000Y-39609250D01*
G75*
G02*
X91466750Y-39340500I268750J0D01*
G01*
G37*
G36*
G01*
X91466750Y-37465500D02*
X92429250Y-37465500D01*
G75*
G02*
X92698000Y-37734250I0J-268750D01*
G01*
X92698000Y-38271750D01*
G75*
G02*
X92429250Y-38540500I-268750J0D01*
G01*
X91466750Y-38540500D01*
G75*
G02*
X91198000Y-38271750I0J268750D01*
G01*
X91198000Y-37734250D01*
G75*
G02*
X91466750Y-37465500I268750J0D01*
G01*
G37*
%TD*%
%TO.C,C2*%
G36*
G01*
X131601500Y-63018750D02*
X131601500Y-63981250D01*
G75*
G02*
X131332750Y-64250000I-268750J0D01*
G01*
X130795250Y-64250000D01*
G75*
G02*
X130526500Y-63981250I0J268750D01*
G01*
X130526500Y-63018750D01*
G75*
G02*
X130795250Y-62750000I268750J0D01*
G01*
X131332750Y-62750000D01*
G75*
G02*
X131601500Y-63018750I0J-268750D01*
G01*
G37*
G36*
G01*
X133476500Y-63018750D02*
X133476500Y-63981250D01*
G75*
G02*
X133207750Y-64250000I-268750J0D01*
G01*
X132670250Y-64250000D01*
G75*
G02*
X132401500Y-63981250I0J268750D01*
G01*
X132401500Y-63018750D01*
G75*
G02*
X132670250Y-62750000I268750J0D01*
G01*
X133207750Y-62750000D01*
G75*
G02*
X133476500Y-63018750I0J-268750D01*
G01*
G37*
%TD*%
%TO.C,C1*%
G36*
G01*
X106201500Y-65558750D02*
X106201500Y-66521250D01*
G75*
G02*
X105932750Y-66790000I-268750J0D01*
G01*
X105395250Y-66790000D01*
G75*
G02*
X105126500Y-66521250I0J268750D01*
G01*
X105126500Y-65558750D01*
G75*
G02*
X105395250Y-65290000I268750J0D01*
G01*
X105932750Y-65290000D01*
G75*
G02*
X106201500Y-65558750I0J-268750D01*
G01*
G37*
G36*
G01*
X108076500Y-65558750D02*
X108076500Y-66521250D01*
G75*
G02*
X107807750Y-66790000I-268750J0D01*
G01*
X107270250Y-66790000D01*
G75*
G02*
X107001500Y-66521250I0J268750D01*
G01*
X107001500Y-65558750D01*
G75*
G02*
X107270250Y-65290000I268750J0D01*
G01*
X107807750Y-65290000D01*
G75*
G02*
X108076500Y-65558750I0J-268750D01*
G01*
G37*
%TD*%
M02*
