M48
; DRILL file {KiCad (5.1.6)-1} date 08/05/20 09:54:44
; FORMAT={-:-/ absolute / inch / decimal}
; #@! TF.CreationDate,2020-08-05T09:54:44-07:00
; #@! TF.GenerationSoftware,Kicad,Pcbnew,(5.1.6)-1
FMAT,2
INCH
T1C0.0157
T2C0.0315
%
G90
G05
T1
X3.94Y-1.93
X4.71Y-3.5
X4.74Y-2.52
X4.8Y-3.07
X4.9Y-3.5
X4.94Y-1.93
X5.08Y-3.03
X5.57Y-2.9
X5.84Y-2.9
T2
X5.66Y-3.11
X5.96Y-3.11
X3.86Y-3.11
X4.16Y-3.11
X4.94Y-1.502
X4.94Y-1.798
X5.04Y-1.502
X5.04Y-1.798
X5.14Y-1.502
X5.14Y-1.798
X5.24Y-1.502
X5.24Y-1.798
X5.34Y-1.502
X5.34Y-1.798
X5.44Y-1.502
X5.44Y-1.798
X5.54Y-1.502
X5.54Y-1.798
X5.64Y-1.502
X5.64Y-1.798
X5.74Y-1.502
X5.74Y-1.798
X5.84Y-1.502
X5.84Y-1.798
X3.94Y-1.502
X3.94Y-1.798
X4.04Y-1.502
X4.04Y-1.798
X4.14Y-1.502
X4.14Y-1.798
X4.24Y-1.502
X4.24Y-1.798
X4.34Y-1.502
X4.34Y-1.798
X4.44Y-1.502
X4.44Y-1.798
X4.54Y-1.502
X4.54Y-1.798
X4.64Y-1.502
X4.64Y-1.798
X4.74Y-1.502
X4.74Y-1.798
X4.84Y-1.502
X4.84Y-1.798
X3.62Y-1.95
X3.62Y-2.1469
X3.66Y-2.96
X3.66Y-3.26
X4.7Y-2.902
X4.7Y-3.198
X4.8Y-2.902
X4.8Y-3.198
X4.9Y-2.902
X4.9Y-3.198
X5.0Y-2.902
X5.0Y-3.198
X4.04Y-1.992
X4.04Y-2.288
X4.14Y-1.992
X4.14Y-2.288
X4.24Y-1.992
X4.24Y-2.288
X4.34Y-1.992
X4.34Y-2.288
X4.44Y-1.992
X4.44Y-2.288
X4.54Y-1.992
X4.54Y-2.288
X4.64Y-1.992
X4.64Y-2.288
X4.74Y-1.992
X4.74Y-2.288
X4.84Y-1.992
X4.84Y-2.288
X4.35Y-3.1416
X4.35Y-3.3384
X5.04Y-1.982
X5.04Y-2.278
X5.14Y-1.982
X5.14Y-2.278
X5.24Y-1.982
X5.24Y-2.278
X5.34Y-1.982
X5.34Y-2.278
X5.44Y-1.982
X5.44Y-2.278
X5.54Y-1.982
X5.54Y-2.278
X5.64Y-1.982
X5.64Y-2.278
X5.74Y-1.982
X5.74Y-2.278
X5.84Y-1.982
X5.84Y-2.278
X5.43Y-2.97
X5.43Y-3.27
T0
M30
