%TF.GenerationSoftware,KiCad,Pcbnew,(5.1.6)-1*%
%TF.CreationDate,2020-08-05T10:29:03-07:00*%
%TF.ProjectId,vu_meter,76755f6d-6574-4657-922e-6b696361645f,rev?*%
%TF.SameCoordinates,Original*%
%TF.FileFunction,Paste,Top*%
%TF.FilePolarity,Positive*%
%FSLAX46Y46*%
G04 Gerber Fmt 4.6, Leading zero omitted, Abs format (unit mm)*
G04 Created by KiCad (PCBNEW (5.1.6)-1) date 2020-08-05 10:29:03*
%MOMM*%
%LPD*%
G01*
G04 APERTURE LIST*
G04 APERTURE END LIST*
%TO.C,R21*%
G36*
G01*
X98500250Y-82354000D02*
X97587750Y-82354000D01*
G75*
G02*
X97344000Y-82110250I0J243750D01*
G01*
X97344000Y-81622750D01*
G75*
G02*
X97587750Y-81379000I243750J0D01*
G01*
X98500250Y-81379000D01*
G75*
G02*
X98744000Y-81622750I0J-243750D01*
G01*
X98744000Y-82110250D01*
G75*
G02*
X98500250Y-82354000I-243750J0D01*
G01*
G37*
G36*
G01*
X98500250Y-84229000D02*
X97587750Y-84229000D01*
G75*
G02*
X97344000Y-83985250I0J243750D01*
G01*
X97344000Y-83497750D01*
G75*
G02*
X97587750Y-83254000I243750J0D01*
G01*
X98500250Y-83254000D01*
G75*
G02*
X98744000Y-83497750I0J-243750D01*
G01*
X98744000Y-83985250D01*
G75*
G02*
X98500250Y-84229000I-243750J0D01*
G01*
G37*
%TD*%
%TO.C,R20*%
G36*
G01*
X144220250Y-82354000D02*
X143307750Y-82354000D01*
G75*
G02*
X143064000Y-82110250I0J243750D01*
G01*
X143064000Y-81622750D01*
G75*
G02*
X143307750Y-81379000I243750J0D01*
G01*
X144220250Y-81379000D01*
G75*
G02*
X144464000Y-81622750I0J-243750D01*
G01*
X144464000Y-82110250D01*
G75*
G02*
X144220250Y-82354000I-243750J0D01*
G01*
G37*
G36*
G01*
X144220250Y-84229000D02*
X143307750Y-84229000D01*
G75*
G02*
X143064000Y-83985250I0J243750D01*
G01*
X143064000Y-83497750D01*
G75*
G02*
X143307750Y-83254000I243750J0D01*
G01*
X144220250Y-83254000D01*
G75*
G02*
X144464000Y-83497750I0J-243750D01*
G01*
X144464000Y-83985250D01*
G75*
G02*
X144220250Y-84229000I-243750J0D01*
G01*
G37*
%TD*%
%TO.C,R19*%
G36*
G01*
X106114000Y-75640250D02*
X106114000Y-74727750D01*
G75*
G02*
X106357750Y-74484000I243750J0D01*
G01*
X106845250Y-74484000D01*
G75*
G02*
X107089000Y-74727750I0J-243750D01*
G01*
X107089000Y-75640250D01*
G75*
G02*
X106845250Y-75884000I-243750J0D01*
G01*
X106357750Y-75884000D01*
G75*
G02*
X106114000Y-75640250I0J243750D01*
G01*
G37*
G36*
G01*
X104239000Y-75640250D02*
X104239000Y-74727750D01*
G75*
G02*
X104482750Y-74484000I243750J0D01*
G01*
X104970250Y-74484000D01*
G75*
G02*
X105214000Y-74727750I0J-243750D01*
G01*
X105214000Y-75640250D01*
G75*
G02*
X104970250Y-75884000I-243750J0D01*
G01*
X104482750Y-75884000D01*
G75*
G02*
X104239000Y-75640250I0J243750D01*
G01*
G37*
%TD*%
%TO.C,R18*%
G36*
G01*
X151326000Y-75640250D02*
X151326000Y-74727750D01*
G75*
G02*
X151569750Y-74484000I243750J0D01*
G01*
X152057250Y-74484000D01*
G75*
G02*
X152301000Y-74727750I0J-243750D01*
G01*
X152301000Y-75640250D01*
G75*
G02*
X152057250Y-75884000I-243750J0D01*
G01*
X151569750Y-75884000D01*
G75*
G02*
X151326000Y-75640250I0J243750D01*
G01*
G37*
G36*
G01*
X149451000Y-75640250D02*
X149451000Y-74727750D01*
G75*
G02*
X149694750Y-74484000I243750J0D01*
G01*
X150182250Y-74484000D01*
G75*
G02*
X150426000Y-74727750I0J-243750D01*
G01*
X150426000Y-75640250D01*
G75*
G02*
X150182250Y-75884000I-243750J0D01*
G01*
X149694750Y-75884000D01*
G75*
G02*
X149451000Y-75640250I0J243750D01*
G01*
G37*
%TD*%
%TO.C,R17*%
G36*
G01*
X99764000Y-75640250D02*
X99764000Y-74727750D01*
G75*
G02*
X100007750Y-74484000I243750J0D01*
G01*
X100495250Y-74484000D01*
G75*
G02*
X100739000Y-74727750I0J-243750D01*
G01*
X100739000Y-75640250D01*
G75*
G02*
X100495250Y-75884000I-243750J0D01*
G01*
X100007750Y-75884000D01*
G75*
G02*
X99764000Y-75640250I0J243750D01*
G01*
G37*
G36*
G01*
X97889000Y-75640250D02*
X97889000Y-74727750D01*
G75*
G02*
X98132750Y-74484000I243750J0D01*
G01*
X98620250Y-74484000D01*
G75*
G02*
X98864000Y-74727750I0J-243750D01*
G01*
X98864000Y-75640250D01*
G75*
G02*
X98620250Y-75884000I-243750J0D01*
G01*
X98132750Y-75884000D01*
G75*
G02*
X97889000Y-75640250I0J243750D01*
G01*
G37*
%TD*%
%TO.C,R16*%
G36*
G01*
X144722000Y-75640250D02*
X144722000Y-74727750D01*
G75*
G02*
X144965750Y-74484000I243750J0D01*
G01*
X145453250Y-74484000D01*
G75*
G02*
X145697000Y-74727750I0J-243750D01*
G01*
X145697000Y-75640250D01*
G75*
G02*
X145453250Y-75884000I-243750J0D01*
G01*
X144965750Y-75884000D01*
G75*
G02*
X144722000Y-75640250I0J243750D01*
G01*
G37*
G36*
G01*
X142847000Y-75640250D02*
X142847000Y-74727750D01*
G75*
G02*
X143090750Y-74484000I243750J0D01*
G01*
X143578250Y-74484000D01*
G75*
G02*
X143822000Y-74727750I0J-243750D01*
G01*
X143822000Y-75640250D01*
G75*
G02*
X143578250Y-75884000I-243750J0D01*
G01*
X143090750Y-75884000D01*
G75*
G02*
X142847000Y-75640250I0J243750D01*
G01*
G37*
%TD*%
%TO.C,R15*%
G36*
G01*
X121100000Y-86816250D02*
X121100000Y-85903750D01*
G75*
G02*
X121343750Y-85660000I243750J0D01*
G01*
X121831250Y-85660000D01*
G75*
G02*
X122075000Y-85903750I0J-243750D01*
G01*
X122075000Y-86816250D01*
G75*
G02*
X121831250Y-87060000I-243750J0D01*
G01*
X121343750Y-87060000D01*
G75*
G02*
X121100000Y-86816250I0J243750D01*
G01*
G37*
G36*
G01*
X119225000Y-86816250D02*
X119225000Y-85903750D01*
G75*
G02*
X119468750Y-85660000I243750J0D01*
G01*
X119956250Y-85660000D01*
G75*
G02*
X120200000Y-85903750I0J-243750D01*
G01*
X120200000Y-86816250D01*
G75*
G02*
X119956250Y-87060000I-243750J0D01*
G01*
X119468750Y-87060000D01*
G75*
G02*
X119225000Y-86816250I0J243750D01*
G01*
G37*
%TD*%
%TO.C,R14*%
G36*
G01*
X118130500Y-69544250D02*
X118130500Y-68631750D01*
G75*
G02*
X118374250Y-68388000I243750J0D01*
G01*
X118861750Y-68388000D01*
G75*
G02*
X119105500Y-68631750I0J-243750D01*
G01*
X119105500Y-69544250D01*
G75*
G02*
X118861750Y-69788000I-243750J0D01*
G01*
X118374250Y-69788000D01*
G75*
G02*
X118130500Y-69544250I0J243750D01*
G01*
G37*
G36*
G01*
X116255500Y-69544250D02*
X116255500Y-68631750D01*
G75*
G02*
X116499250Y-68388000I243750J0D01*
G01*
X116986750Y-68388000D01*
G75*
G02*
X117230500Y-68631750I0J-243750D01*
G01*
X117230500Y-69544250D01*
G75*
G02*
X116986750Y-69788000I-243750J0D01*
G01*
X116499250Y-69788000D01*
G75*
G02*
X116255500Y-69544250I0J243750D01*
G01*
G37*
%TD*%
%TO.C,R13*%
G36*
G01*
X125358500Y-85903750D02*
X125358500Y-86816250D01*
G75*
G02*
X125114750Y-87060000I-243750J0D01*
G01*
X124627250Y-87060000D01*
G75*
G02*
X124383500Y-86816250I0J243750D01*
G01*
X124383500Y-85903750D01*
G75*
G02*
X124627250Y-85660000I243750J0D01*
G01*
X125114750Y-85660000D01*
G75*
G02*
X125358500Y-85903750I0J-243750D01*
G01*
G37*
G36*
G01*
X127233500Y-85903750D02*
X127233500Y-86816250D01*
G75*
G02*
X126989750Y-87060000I-243750J0D01*
G01*
X126502250Y-87060000D01*
G75*
G02*
X126258500Y-86816250I0J243750D01*
G01*
X126258500Y-85903750D01*
G75*
G02*
X126502250Y-85660000I243750J0D01*
G01*
X126989750Y-85660000D01*
G75*
G02*
X127233500Y-85903750I0J-243750D01*
G01*
G37*
%TD*%
%TO.C,R12*%
G36*
G01*
X121802500Y-68631750D02*
X121802500Y-69544250D01*
G75*
G02*
X121558750Y-69788000I-243750J0D01*
G01*
X121071250Y-69788000D01*
G75*
G02*
X120827500Y-69544250I0J243750D01*
G01*
X120827500Y-68631750D01*
G75*
G02*
X121071250Y-68388000I243750J0D01*
G01*
X121558750Y-68388000D01*
G75*
G02*
X121802500Y-68631750I0J-243750D01*
G01*
G37*
G36*
G01*
X123677500Y-68631750D02*
X123677500Y-69544250D01*
G75*
G02*
X123433750Y-69788000I-243750J0D01*
G01*
X122946250Y-69788000D01*
G75*
G02*
X122702500Y-69544250I0J243750D01*
G01*
X122702500Y-68631750D01*
G75*
G02*
X122946250Y-68388000I243750J0D01*
G01*
X123433750Y-68388000D01*
G75*
G02*
X123677500Y-68631750I0J-243750D01*
G01*
G37*
%TD*%
%TO.C,R11*%
G36*
G01*
X110033750Y-76396000D02*
X110946250Y-76396000D01*
G75*
G02*
X111190000Y-76639750I0J-243750D01*
G01*
X111190000Y-77127250D01*
G75*
G02*
X110946250Y-77371000I-243750J0D01*
G01*
X110033750Y-77371000D01*
G75*
G02*
X109790000Y-77127250I0J243750D01*
G01*
X109790000Y-76639750D01*
G75*
G02*
X110033750Y-76396000I243750J0D01*
G01*
G37*
G36*
G01*
X110033750Y-74521000D02*
X110946250Y-74521000D01*
G75*
G02*
X111190000Y-74764750I0J-243750D01*
G01*
X111190000Y-75252250D01*
G75*
G02*
X110946250Y-75496000I-243750J0D01*
G01*
X110033750Y-75496000D01*
G75*
G02*
X109790000Y-75252250I0J243750D01*
G01*
X109790000Y-74764750D01*
G75*
G02*
X110033750Y-74521000I243750J0D01*
G01*
G37*
%TD*%
%TO.C,R10*%
G36*
G01*
X127274500Y-65988250D02*
X127274500Y-65075750D01*
G75*
G02*
X127518250Y-64832000I243750J0D01*
G01*
X128005750Y-64832000D01*
G75*
G02*
X128249500Y-65075750I0J-243750D01*
G01*
X128249500Y-65988250D01*
G75*
G02*
X128005750Y-66232000I-243750J0D01*
G01*
X127518250Y-66232000D01*
G75*
G02*
X127274500Y-65988250I0J243750D01*
G01*
G37*
G36*
G01*
X125399500Y-65988250D02*
X125399500Y-65075750D01*
G75*
G02*
X125643250Y-64832000I243750J0D01*
G01*
X126130750Y-64832000D01*
G75*
G02*
X126374500Y-65075750I0J-243750D01*
G01*
X126374500Y-65988250D01*
G75*
G02*
X126130750Y-66232000I-243750J0D01*
G01*
X125643250Y-66232000D01*
G75*
G02*
X125399500Y-65988250I0J243750D01*
G01*
G37*
%TD*%
%TO.C,R9*%
G36*
G01*
X122702500Y-65988250D02*
X122702500Y-65075750D01*
G75*
G02*
X122946250Y-64832000I243750J0D01*
G01*
X123433750Y-64832000D01*
G75*
G02*
X123677500Y-65075750I0J-243750D01*
G01*
X123677500Y-65988250D01*
G75*
G02*
X123433750Y-66232000I-243750J0D01*
G01*
X122946250Y-66232000D01*
G75*
G02*
X122702500Y-65988250I0J243750D01*
G01*
G37*
G36*
G01*
X120827500Y-65988250D02*
X120827500Y-65075750D01*
G75*
G02*
X121071250Y-64832000I243750J0D01*
G01*
X121558750Y-64832000D01*
G75*
G02*
X121802500Y-65075750I0J-243750D01*
G01*
X121802500Y-65988250D01*
G75*
G02*
X121558750Y-66232000I-243750J0D01*
G01*
X121071250Y-66232000D01*
G75*
G02*
X120827500Y-65988250I0J243750D01*
G01*
G37*
%TD*%
%TO.C,R8*%
G36*
G01*
X126180000Y-91896250D02*
X126180000Y-90983750D01*
G75*
G02*
X126423750Y-90740000I243750J0D01*
G01*
X126911250Y-90740000D01*
G75*
G02*
X127155000Y-90983750I0J-243750D01*
G01*
X127155000Y-91896250D01*
G75*
G02*
X126911250Y-92140000I-243750J0D01*
G01*
X126423750Y-92140000D01*
G75*
G02*
X126180000Y-91896250I0J243750D01*
G01*
G37*
G36*
G01*
X124305000Y-91896250D02*
X124305000Y-90983750D01*
G75*
G02*
X124548750Y-90740000I243750J0D01*
G01*
X125036250Y-90740000D01*
G75*
G02*
X125280000Y-90983750I0J-243750D01*
G01*
X125280000Y-91896250D01*
G75*
G02*
X125036250Y-92140000I-243750J0D01*
G01*
X124548750Y-92140000D01*
G75*
G02*
X124305000Y-91896250I0J243750D01*
G01*
G37*
%TD*%
%TO.C,R7*%
G36*
G01*
X121100000Y-91896250D02*
X121100000Y-90983750D01*
G75*
G02*
X121343750Y-90740000I243750J0D01*
G01*
X121831250Y-90740000D01*
G75*
G02*
X122075000Y-90983750I0J-243750D01*
G01*
X122075000Y-91896250D01*
G75*
G02*
X121831250Y-92140000I-243750J0D01*
G01*
X121343750Y-92140000D01*
G75*
G02*
X121100000Y-91896250I0J243750D01*
G01*
G37*
G36*
G01*
X119225000Y-91896250D02*
X119225000Y-90983750D01*
G75*
G02*
X119468750Y-90740000I243750J0D01*
G01*
X119956250Y-90740000D01*
G75*
G02*
X120200000Y-90983750I0J-243750D01*
G01*
X120200000Y-91896250D01*
G75*
G02*
X119956250Y-92140000I-243750J0D01*
G01*
X119468750Y-92140000D01*
G75*
G02*
X119225000Y-91896250I0J243750D01*
G01*
G37*
%TD*%
%TO.C,R6*%
G36*
G01*
X147879750Y-68346500D02*
X148792250Y-68346500D01*
G75*
G02*
X149036000Y-68590250I0J-243750D01*
G01*
X149036000Y-69077750D01*
G75*
G02*
X148792250Y-69321500I-243750J0D01*
G01*
X147879750Y-69321500D01*
G75*
G02*
X147636000Y-69077750I0J243750D01*
G01*
X147636000Y-68590250D01*
G75*
G02*
X147879750Y-68346500I243750J0D01*
G01*
G37*
G36*
G01*
X147879750Y-66471500D02*
X148792250Y-66471500D01*
G75*
G02*
X149036000Y-66715250I0J-243750D01*
G01*
X149036000Y-67202750D01*
G75*
G02*
X148792250Y-67446500I-243750J0D01*
G01*
X147879750Y-67446500D01*
G75*
G02*
X147636000Y-67202750I0J243750D01*
G01*
X147636000Y-66715250D01*
G75*
G02*
X147879750Y-66471500I243750J0D01*
G01*
G37*
%TD*%
%TO.C,R5*%
G36*
G01*
X117327500Y-65075750D02*
X117327500Y-65988250D01*
G75*
G02*
X117083750Y-66232000I-243750J0D01*
G01*
X116596250Y-66232000D01*
G75*
G02*
X116352500Y-65988250I0J243750D01*
G01*
X116352500Y-65075750D01*
G75*
G02*
X116596250Y-64832000I243750J0D01*
G01*
X117083750Y-64832000D01*
G75*
G02*
X117327500Y-65075750I0J-243750D01*
G01*
G37*
G36*
G01*
X119202500Y-65075750D02*
X119202500Y-65988250D01*
G75*
G02*
X118958750Y-66232000I-243750J0D01*
G01*
X118471250Y-66232000D01*
G75*
G02*
X118227500Y-65988250I0J243750D01*
G01*
X118227500Y-65075750D01*
G75*
G02*
X118471250Y-64832000I243750J0D01*
G01*
X118958750Y-64832000D01*
G75*
G02*
X119202500Y-65075750I0J-243750D01*
G01*
G37*
%TD*%
%TO.C,R4*%
G36*
G01*
X146440500Y-62281750D02*
X146440500Y-63194250D01*
G75*
G02*
X146196750Y-63438000I-243750J0D01*
G01*
X145709250Y-63438000D01*
G75*
G02*
X145465500Y-63194250I0J243750D01*
G01*
X145465500Y-62281750D01*
G75*
G02*
X145709250Y-62038000I243750J0D01*
G01*
X146196750Y-62038000D01*
G75*
G02*
X146440500Y-62281750I0J-243750D01*
G01*
G37*
G36*
G01*
X148315500Y-62281750D02*
X148315500Y-63194250D01*
G75*
G02*
X148071750Y-63438000I-243750J0D01*
G01*
X147584250Y-63438000D01*
G75*
G02*
X147340500Y-63194250I0J243750D01*
G01*
X147340500Y-62281750D01*
G75*
G02*
X147584250Y-62038000I243750J0D01*
G01*
X148071750Y-62038000D01*
G75*
G02*
X148315500Y-62281750I0J-243750D01*
G01*
G37*
%TD*%
%TO.C,R3*%
G36*
G01*
X142182000Y-63194250D02*
X142182000Y-62281750D01*
G75*
G02*
X142425750Y-62038000I243750J0D01*
G01*
X142913250Y-62038000D01*
G75*
G02*
X143157000Y-62281750I0J-243750D01*
G01*
X143157000Y-63194250D01*
G75*
G02*
X142913250Y-63438000I-243750J0D01*
G01*
X142425750Y-63438000D01*
G75*
G02*
X142182000Y-63194250I0J243750D01*
G01*
G37*
G36*
G01*
X140307000Y-63194250D02*
X140307000Y-62281750D01*
G75*
G02*
X140550750Y-62038000I243750J0D01*
G01*
X141038250Y-62038000D01*
G75*
G02*
X141282000Y-62281750I0J-243750D01*
G01*
X141282000Y-63194250D01*
G75*
G02*
X141038250Y-63438000I-243750J0D01*
G01*
X140550750Y-63438000D01*
G75*
G02*
X140307000Y-63194250I0J243750D01*
G01*
G37*
%TD*%
%TO.C,R2*%
G36*
G01*
X123423500Y-61773750D02*
X123423500Y-62686250D01*
G75*
G02*
X123179750Y-62930000I-243750J0D01*
G01*
X122692250Y-62930000D01*
G75*
G02*
X122448500Y-62686250I0J243750D01*
G01*
X122448500Y-61773750D01*
G75*
G02*
X122692250Y-61530000I243750J0D01*
G01*
X123179750Y-61530000D01*
G75*
G02*
X123423500Y-61773750I0J-243750D01*
G01*
G37*
G36*
G01*
X125298500Y-61773750D02*
X125298500Y-62686250D01*
G75*
G02*
X125054750Y-62930000I-243750J0D01*
G01*
X124567250Y-62930000D01*
G75*
G02*
X124323500Y-62686250I0J243750D01*
G01*
X124323500Y-61773750D01*
G75*
G02*
X124567250Y-61530000I243750J0D01*
G01*
X125054750Y-61530000D01*
G75*
G02*
X125298500Y-61773750I0J-243750D01*
G01*
G37*
%TD*%
%TO.C,R1*%
G36*
G01*
X119400500Y-62686250D02*
X119400500Y-61773750D01*
G75*
G02*
X119644250Y-61530000I243750J0D01*
G01*
X120131750Y-61530000D01*
G75*
G02*
X120375500Y-61773750I0J-243750D01*
G01*
X120375500Y-62686250D01*
G75*
G02*
X120131750Y-62930000I-243750J0D01*
G01*
X119644250Y-62930000D01*
G75*
G02*
X119400500Y-62686250I0J243750D01*
G01*
G37*
G36*
G01*
X117525500Y-62686250D02*
X117525500Y-61773750D01*
G75*
G02*
X117769250Y-61530000I243750J0D01*
G01*
X118256750Y-61530000D01*
G75*
G02*
X118500500Y-61773750I0J-243750D01*
G01*
X118500500Y-62686250D01*
G75*
G02*
X118256750Y-62930000I-243750J0D01*
G01*
X117769250Y-62930000D01*
G75*
G02*
X117525500Y-62686250I0J243750D01*
G01*
G37*
%TD*%
%TO.C,C13*%
G36*
G01*
X106120250Y-82354000D02*
X105207750Y-82354000D01*
G75*
G02*
X104964000Y-82110250I0J243750D01*
G01*
X104964000Y-81622750D01*
G75*
G02*
X105207750Y-81379000I243750J0D01*
G01*
X106120250Y-81379000D01*
G75*
G02*
X106364000Y-81622750I0J-243750D01*
G01*
X106364000Y-82110250D01*
G75*
G02*
X106120250Y-82354000I-243750J0D01*
G01*
G37*
G36*
G01*
X106120250Y-84229000D02*
X105207750Y-84229000D01*
G75*
G02*
X104964000Y-83985250I0J243750D01*
G01*
X104964000Y-83497750D01*
G75*
G02*
X105207750Y-83254000I243750J0D01*
G01*
X106120250Y-83254000D01*
G75*
G02*
X106364000Y-83497750I0J-243750D01*
G01*
X106364000Y-83985250D01*
G75*
G02*
X106120250Y-84229000I-243750J0D01*
G01*
G37*
%TD*%
%TO.C,C12*%
G36*
G01*
X151840250Y-82354000D02*
X150927750Y-82354000D01*
G75*
G02*
X150684000Y-82110250I0J243750D01*
G01*
X150684000Y-81622750D01*
G75*
G02*
X150927750Y-81379000I243750J0D01*
G01*
X151840250Y-81379000D01*
G75*
G02*
X152084000Y-81622750I0J-243750D01*
G01*
X152084000Y-82110250D01*
G75*
G02*
X151840250Y-82354000I-243750J0D01*
G01*
G37*
G36*
G01*
X151840250Y-84229000D02*
X150927750Y-84229000D01*
G75*
G02*
X150684000Y-83985250I0J243750D01*
G01*
X150684000Y-83497750D01*
G75*
G02*
X150927750Y-83254000I243750J0D01*
G01*
X151840250Y-83254000D01*
G75*
G02*
X152084000Y-83497750I0J-243750D01*
G01*
X152084000Y-83985250D01*
G75*
G02*
X151840250Y-84229000I-243750J0D01*
G01*
G37*
%TD*%
%TO.C,C11*%
G36*
G01*
X116788250Y-84815500D02*
X115875750Y-84815500D01*
G75*
G02*
X115632000Y-84571750I0J243750D01*
G01*
X115632000Y-84084250D01*
G75*
G02*
X115875750Y-83840500I243750J0D01*
G01*
X116788250Y-83840500D01*
G75*
G02*
X117032000Y-84084250I0J-243750D01*
G01*
X117032000Y-84571750D01*
G75*
G02*
X116788250Y-84815500I-243750J0D01*
G01*
G37*
G36*
G01*
X116788250Y-86690500D02*
X115875750Y-86690500D01*
G75*
G02*
X115632000Y-86446750I0J243750D01*
G01*
X115632000Y-85959250D01*
G75*
G02*
X115875750Y-85715500I243750J0D01*
G01*
X116788250Y-85715500D01*
G75*
G02*
X117032000Y-85959250I0J-243750D01*
G01*
X117032000Y-86446750D01*
G75*
G02*
X116788250Y-86690500I-243750J0D01*
G01*
G37*
%TD*%
%TO.C,C10*%
G36*
G01*
X132530000Y-74116250D02*
X132530000Y-73203750D01*
G75*
G02*
X132773750Y-72960000I243750J0D01*
G01*
X133261250Y-72960000D01*
G75*
G02*
X133505000Y-73203750I0J-243750D01*
G01*
X133505000Y-74116250D01*
G75*
G02*
X133261250Y-74360000I-243750J0D01*
G01*
X132773750Y-74360000D01*
G75*
G02*
X132530000Y-74116250I0J243750D01*
G01*
G37*
G36*
G01*
X130655000Y-74116250D02*
X130655000Y-73203750D01*
G75*
G02*
X130898750Y-72960000I243750J0D01*
G01*
X131386250Y-72960000D01*
G75*
G02*
X131630000Y-73203750I0J-243750D01*
G01*
X131630000Y-74116250D01*
G75*
G02*
X131386250Y-74360000I-243750J0D01*
G01*
X130898750Y-74360000D01*
G75*
G02*
X130655000Y-74116250I0J243750D01*
G01*
G37*
%TD*%
%TO.C,C9*%
G36*
G01*
X130360000Y-85903750D02*
X130360000Y-86816250D01*
G75*
G02*
X130116250Y-87060000I-243750J0D01*
G01*
X129628750Y-87060000D01*
G75*
G02*
X129385000Y-86816250I0J243750D01*
G01*
X129385000Y-85903750D01*
G75*
G02*
X129628750Y-85660000I243750J0D01*
G01*
X130116250Y-85660000D01*
G75*
G02*
X130360000Y-85903750I0J-243750D01*
G01*
G37*
G36*
G01*
X132235000Y-85903750D02*
X132235000Y-86816250D01*
G75*
G02*
X131991250Y-87060000I-243750J0D01*
G01*
X131503750Y-87060000D01*
G75*
G02*
X131260000Y-86816250I0J243750D01*
G01*
X131260000Y-85903750D01*
G75*
G02*
X131503750Y-85660000I243750J0D01*
G01*
X131991250Y-85660000D01*
G75*
G02*
X132235000Y-85903750I0J-243750D01*
G01*
G37*
%TD*%
%TO.C,C8*%
G36*
G01*
X126471500Y-68631750D02*
X126471500Y-69544250D01*
G75*
G02*
X126227750Y-69788000I-243750J0D01*
G01*
X125740250Y-69788000D01*
G75*
G02*
X125496500Y-69544250I0J243750D01*
G01*
X125496500Y-68631750D01*
G75*
G02*
X125740250Y-68388000I243750J0D01*
G01*
X126227750Y-68388000D01*
G75*
G02*
X126471500Y-68631750I0J-243750D01*
G01*
G37*
G36*
G01*
X128346500Y-68631750D02*
X128346500Y-69544250D01*
G75*
G02*
X128102750Y-69788000I-243750J0D01*
G01*
X127615250Y-69788000D01*
G75*
G02*
X127371500Y-69544250I0J243750D01*
G01*
X127371500Y-68631750D01*
G75*
G02*
X127615250Y-68388000I243750J0D01*
G01*
X128102750Y-68388000D01*
G75*
G02*
X128346500Y-68631750I0J-243750D01*
G01*
G37*
%TD*%
%TO.C,C7*%
G36*
G01*
X115113750Y-79365500D02*
X116026250Y-79365500D01*
G75*
G02*
X116270000Y-79609250I0J-243750D01*
G01*
X116270000Y-80096750D01*
G75*
G02*
X116026250Y-80340500I-243750J0D01*
G01*
X115113750Y-80340500D01*
G75*
G02*
X114870000Y-80096750I0J243750D01*
G01*
X114870000Y-79609250D01*
G75*
G02*
X115113750Y-79365500I243750J0D01*
G01*
G37*
G36*
G01*
X115113750Y-77490500D02*
X116026250Y-77490500D01*
G75*
G02*
X116270000Y-77734250I0J-243750D01*
G01*
X116270000Y-78221750D01*
G75*
G02*
X116026250Y-78465500I-243750J0D01*
G01*
X115113750Y-78465500D01*
G75*
G02*
X114870000Y-78221750I0J243750D01*
G01*
X114870000Y-77734250D01*
G75*
G02*
X115113750Y-77490500I243750J0D01*
G01*
G37*
%TD*%
%TO.C,C6*%
G36*
G01*
X130607750Y-79014500D02*
X131520250Y-79014500D01*
G75*
G02*
X131764000Y-79258250I0J-243750D01*
G01*
X131764000Y-79745750D01*
G75*
G02*
X131520250Y-79989500I-243750J0D01*
G01*
X130607750Y-79989500D01*
G75*
G02*
X130364000Y-79745750I0J243750D01*
G01*
X130364000Y-79258250D01*
G75*
G02*
X130607750Y-79014500I243750J0D01*
G01*
G37*
G36*
G01*
X130607750Y-77139500D02*
X131520250Y-77139500D01*
G75*
G02*
X131764000Y-77383250I0J-243750D01*
G01*
X131764000Y-77870750D01*
G75*
G02*
X131520250Y-78114500I-243750J0D01*
G01*
X130607750Y-78114500D01*
G75*
G02*
X130364000Y-77870750I0J243750D01*
G01*
X130364000Y-77383250D01*
G75*
G02*
X130607750Y-77139500I243750J0D01*
G01*
G37*
%TD*%
%TO.C,C5*%
G36*
G01*
X131551500Y-66345750D02*
X131551500Y-67258250D01*
G75*
G02*
X131307750Y-67502000I-243750J0D01*
G01*
X130820250Y-67502000D01*
G75*
G02*
X130576500Y-67258250I0J243750D01*
G01*
X130576500Y-66345750D01*
G75*
G02*
X130820250Y-66102000I243750J0D01*
G01*
X131307750Y-66102000D01*
G75*
G02*
X131551500Y-66345750I0J-243750D01*
G01*
G37*
G36*
G01*
X133426500Y-66345750D02*
X133426500Y-67258250D01*
G75*
G02*
X133182750Y-67502000I-243750J0D01*
G01*
X132695250Y-67502000D01*
G75*
G02*
X132451500Y-67258250I0J243750D01*
G01*
X132451500Y-66345750D01*
G75*
G02*
X132695250Y-66102000I243750J0D01*
G01*
X133182750Y-66102000D01*
G75*
G02*
X133426500Y-66345750I0J-243750D01*
G01*
G37*
%TD*%
%TO.C,C4*%
G36*
G01*
X106151500Y-62027750D02*
X106151500Y-62940250D01*
G75*
G02*
X105907750Y-63184000I-243750J0D01*
G01*
X105420250Y-63184000D01*
G75*
G02*
X105176500Y-62940250I0J243750D01*
G01*
X105176500Y-62027750D01*
G75*
G02*
X105420250Y-61784000I243750J0D01*
G01*
X105907750Y-61784000D01*
G75*
G02*
X106151500Y-62027750I0J-243750D01*
G01*
G37*
G36*
G01*
X108026500Y-62027750D02*
X108026500Y-62940250D01*
G75*
G02*
X107782750Y-63184000I-243750J0D01*
G01*
X107295250Y-63184000D01*
G75*
G02*
X107051500Y-62940250I0J243750D01*
G01*
X107051500Y-62027750D01*
G75*
G02*
X107295250Y-61784000I243750J0D01*
G01*
X107782750Y-61784000D01*
G75*
G02*
X108026500Y-62027750I0J-243750D01*
G01*
G37*
%TD*%
%TO.C,C3*%
G36*
G01*
X91491750Y-39390500D02*
X92404250Y-39390500D01*
G75*
G02*
X92648000Y-39634250I0J-243750D01*
G01*
X92648000Y-40121750D01*
G75*
G02*
X92404250Y-40365500I-243750J0D01*
G01*
X91491750Y-40365500D01*
G75*
G02*
X91248000Y-40121750I0J243750D01*
G01*
X91248000Y-39634250D01*
G75*
G02*
X91491750Y-39390500I243750J0D01*
G01*
G37*
G36*
G01*
X91491750Y-37515500D02*
X92404250Y-37515500D01*
G75*
G02*
X92648000Y-37759250I0J-243750D01*
G01*
X92648000Y-38246750D01*
G75*
G02*
X92404250Y-38490500I-243750J0D01*
G01*
X91491750Y-38490500D01*
G75*
G02*
X91248000Y-38246750I0J243750D01*
G01*
X91248000Y-37759250D01*
G75*
G02*
X91491750Y-37515500I243750J0D01*
G01*
G37*
%TD*%
%TO.C,C2*%
G36*
G01*
X131551500Y-63043750D02*
X131551500Y-63956250D01*
G75*
G02*
X131307750Y-64200000I-243750J0D01*
G01*
X130820250Y-64200000D01*
G75*
G02*
X130576500Y-63956250I0J243750D01*
G01*
X130576500Y-63043750D01*
G75*
G02*
X130820250Y-62800000I243750J0D01*
G01*
X131307750Y-62800000D01*
G75*
G02*
X131551500Y-63043750I0J-243750D01*
G01*
G37*
G36*
G01*
X133426500Y-63043750D02*
X133426500Y-63956250D01*
G75*
G02*
X133182750Y-64200000I-243750J0D01*
G01*
X132695250Y-64200000D01*
G75*
G02*
X132451500Y-63956250I0J243750D01*
G01*
X132451500Y-63043750D01*
G75*
G02*
X132695250Y-62800000I243750J0D01*
G01*
X133182750Y-62800000D01*
G75*
G02*
X133426500Y-63043750I0J-243750D01*
G01*
G37*
%TD*%
%TO.C,C1*%
G36*
G01*
X106151500Y-65583750D02*
X106151500Y-66496250D01*
G75*
G02*
X105907750Y-66740000I-243750J0D01*
G01*
X105420250Y-66740000D01*
G75*
G02*
X105176500Y-66496250I0J243750D01*
G01*
X105176500Y-65583750D01*
G75*
G02*
X105420250Y-65340000I243750J0D01*
G01*
X105907750Y-65340000D01*
G75*
G02*
X106151500Y-65583750I0J-243750D01*
G01*
G37*
G36*
G01*
X108026500Y-65583750D02*
X108026500Y-66496250D01*
G75*
G02*
X107782750Y-66740000I-243750J0D01*
G01*
X107295250Y-66740000D01*
G75*
G02*
X107051500Y-66496250I0J243750D01*
G01*
X107051500Y-65583750D01*
G75*
G02*
X107295250Y-65340000I243750J0D01*
G01*
X107782750Y-65340000D01*
G75*
G02*
X108026500Y-65583750I0J-243750D01*
G01*
G37*
%TD*%
M02*
