%TF.GenerationSoftware,KiCad,Pcbnew,(5.1.6)-1*%
%TF.CreationDate,2020-08-05T10:29:03-07:00*%
%TF.ProjectId,vu_meter,76755f6d-6574-4657-922e-6b696361645f,rev?*%
%TF.SameCoordinates,Original*%
%TF.FileFunction,Soldermask,Bot*%
%TF.FilePolarity,Negative*%
%FSLAX46Y46*%
G04 Gerber Fmt 4.6, Leading zero omitted, Abs format (unit mm)*
G04 Created by KiCad (PCBNEW (5.1.6)-1) date 2020-08-05 10:29:03*
%MOMM*%
%LPD*%
G01*
G04 APERTURE LIST*
%ADD10O,1.300000X2.100000*%
%ADD11O,0.900000X2.100000*%
%ADD12O,2.100000X1.300000*%
%ADD13O,1.700000X1.700000*%
%ADD14R,1.700000X1.700000*%
G04 APERTURE END LIST*
D10*
%TO.C,U3*%
X148336000Y-57862000D03*
X148336000Y-50342000D03*
X145796000Y-57862000D03*
X145796000Y-50342000D03*
X143256000Y-57862000D03*
X143256000Y-50342000D03*
X140716000Y-57862000D03*
X140716000Y-50342000D03*
X138176000Y-57862000D03*
X138176000Y-50342000D03*
X135636000Y-57862000D03*
X135636000Y-50342000D03*
X133096000Y-57862000D03*
X133096000Y-50342000D03*
X130556000Y-57862000D03*
X130556000Y-50342000D03*
X128016000Y-57862000D03*
X128016000Y-50342000D03*
%TD*%
%TO.C,U2*%
X122936000Y-58116000D03*
X122936000Y-50596000D03*
X120396000Y-58116000D03*
X120396000Y-50596000D03*
X117856000Y-58116000D03*
X117856000Y-50596000D03*
X115316000Y-58116000D03*
X115316000Y-50596000D03*
X112776000Y-58116000D03*
X112776000Y-50596000D03*
X110236000Y-58116000D03*
X110236000Y-50596000D03*
X107696000Y-58116000D03*
X107696000Y-50596000D03*
X105156000Y-58116000D03*
X105156000Y-50596000D03*
X102616000Y-58116000D03*
X102616000Y-50596000D03*
%TD*%
D11*
%TO.C,U1*%
X127000000Y-81230000D03*
X127000000Y-73710000D03*
X124460000Y-81230000D03*
X124460000Y-73710000D03*
X121920000Y-81230000D03*
X121920000Y-73710000D03*
X119380000Y-81230000D03*
X119380000Y-73710000D03*
%TD*%
D12*
%TO.C,MK1*%
X110490000Y-79796000D03*
X110490000Y-84796000D03*
%TD*%
%TO.C,J1*%
X91948000Y-49530000D03*
X91948000Y-54530000D03*
%TD*%
D13*
%TO.C,D6*%
X105664000Y-78994000D03*
D14*
X98044000Y-78994000D03*
%TD*%
D13*
%TO.C,D5*%
X151384000Y-78994000D03*
D14*
X143764000Y-78994000D03*
%TD*%
D13*
%TO.C,D4*%
X92964000Y-75184000D03*
D14*
X92964000Y-82804000D03*
%TD*%
D13*
%TO.C,D3*%
X137922000Y-75438000D03*
D14*
X137922000Y-83058000D03*
%TD*%
D10*
%TO.C,D2*%
X148336000Y-45670000D03*
X148336000Y-38150000D03*
X145796000Y-45670000D03*
X145796000Y-38150000D03*
X143256000Y-45670000D03*
X143256000Y-38150000D03*
X140716000Y-45670000D03*
X140716000Y-38150000D03*
X138176000Y-45670000D03*
X138176000Y-38150000D03*
X135636000Y-45670000D03*
X135636000Y-38150000D03*
X133096000Y-45670000D03*
X133096000Y-38150000D03*
X130556000Y-45670000D03*
X130556000Y-38150000D03*
X128016000Y-45670000D03*
X128016000Y-38150000D03*
X125476000Y-45670000D03*
X125476000Y-38150000D03*
%TD*%
%TO.C,D1*%
X122936000Y-45670000D03*
X122936000Y-38150000D03*
X120396000Y-45670000D03*
X120396000Y-38150000D03*
X117856000Y-45670000D03*
X117856000Y-38150000D03*
X115316000Y-45670000D03*
X115316000Y-38150000D03*
X112776000Y-45670000D03*
X112776000Y-38150000D03*
X110236000Y-45670000D03*
X110236000Y-38150000D03*
X107696000Y-45670000D03*
X107696000Y-38150000D03*
X105156000Y-45670000D03*
X105156000Y-38150000D03*
X102616000Y-45670000D03*
X102616000Y-38150000D03*
X100076000Y-45670000D03*
X100076000Y-38150000D03*
%TD*%
M02*
