%TF.GenerationSoftware,KiCad,Pcbnew,(5.1.6)-1*%
%TF.CreationDate,2020-08-05T10:29:03-07:00*%
%TF.ProjectId,vu_meter,76755f6d-6574-4657-922e-6b696361645f,rev?*%
%TF.SameCoordinates,Original*%
%TF.FileFunction,Legend,Top*%
%TF.FilePolarity,Positive*%
%FSLAX46Y46*%
G04 Gerber Fmt 4.6, Leading zero omitted, Abs format (unit mm)*
G04 Created by KiCad (PCBNEW (5.1.6)-1) date 2020-08-05 10:29:03*
%MOMM*%
%LPD*%
G01*
G04 APERTURE LIST*
%ADD10C,0.150000*%
%ADD11C,0.120000*%
G04 APERTURE END LIST*
D10*
X105324571Y-31456380D02*
X105562666Y-32456380D01*
X105753142Y-31742095D01*
X105943619Y-32456380D01*
X106181714Y-31456380D01*
X106562666Y-32456380D02*
X106562666Y-31456380D01*
X106991238Y-32456380D02*
X106991238Y-31932571D01*
X106943619Y-31837333D01*
X106848380Y-31789714D01*
X106705523Y-31789714D01*
X106610285Y-31837333D01*
X106562666Y-31884952D01*
X107896000Y-32456380D02*
X107896000Y-31932571D01*
X107848380Y-31837333D01*
X107753142Y-31789714D01*
X107562666Y-31789714D01*
X107467428Y-31837333D01*
X107896000Y-32408761D02*
X107800761Y-32456380D01*
X107562666Y-32456380D01*
X107467428Y-32408761D01*
X107419809Y-32313523D01*
X107419809Y-32218285D01*
X107467428Y-32123047D01*
X107562666Y-32075428D01*
X107800761Y-32075428D01*
X107896000Y-32027809D01*
X108229333Y-31789714D02*
X108610285Y-31789714D01*
X108372190Y-31456380D02*
X108372190Y-32313523D01*
X108419809Y-32408761D01*
X108515047Y-32456380D01*
X108610285Y-32456380D01*
X108991238Y-31456380D02*
X108896000Y-31646857D01*
X109372190Y-32408761D02*
X109467428Y-32456380D01*
X109657904Y-32456380D01*
X109753142Y-32408761D01*
X109800761Y-32313523D01*
X109800761Y-32265904D01*
X109753142Y-32170666D01*
X109657904Y-32123047D01*
X109515047Y-32123047D01*
X109419809Y-32075428D01*
X109372190Y-31980190D01*
X109372190Y-31932571D01*
X109419809Y-31837333D01*
X109515047Y-31789714D01*
X109657904Y-31789714D01*
X109753142Y-31837333D01*
X111419809Y-32456380D02*
X111419809Y-31932571D01*
X111372190Y-31837333D01*
X111276952Y-31789714D01*
X111086476Y-31789714D01*
X110991238Y-31837333D01*
X111419809Y-32408761D02*
X111324571Y-32456380D01*
X111086476Y-32456380D01*
X110991238Y-32408761D01*
X110943619Y-32313523D01*
X110943619Y-32218285D01*
X110991238Y-32123047D01*
X111086476Y-32075428D01*
X111324571Y-32075428D01*
X111419809Y-32027809D01*
X112038857Y-32456380D02*
X111943619Y-32408761D01*
X111896000Y-32313523D01*
X111896000Y-31456380D01*
X112562666Y-32456380D02*
X112467428Y-32408761D01*
X112419809Y-32313523D01*
X112419809Y-31456380D01*
X113562666Y-31789714D02*
X113943619Y-31789714D01*
X113705523Y-31456380D02*
X113705523Y-32313523D01*
X113753142Y-32408761D01*
X113848380Y-32456380D01*
X113943619Y-32456380D01*
X114276952Y-32456380D02*
X114276952Y-31456380D01*
X114705523Y-32456380D02*
X114705523Y-31932571D01*
X114657904Y-31837333D01*
X114562666Y-31789714D01*
X114419809Y-31789714D01*
X114324571Y-31837333D01*
X114276952Y-31884952D01*
X115181714Y-32456380D02*
X115181714Y-31789714D01*
X115181714Y-31456380D02*
X115134095Y-31504000D01*
X115181714Y-31551619D01*
X115229333Y-31504000D01*
X115181714Y-31456380D01*
X115181714Y-31551619D01*
X115610285Y-32408761D02*
X115705523Y-32456380D01*
X115896000Y-32456380D01*
X115991238Y-32408761D01*
X116038857Y-32313523D01*
X116038857Y-32265904D01*
X115991238Y-32170666D01*
X115896000Y-32123047D01*
X115753142Y-32123047D01*
X115657904Y-32075428D01*
X115610285Y-31980190D01*
X115610285Y-31932571D01*
X115657904Y-31837333D01*
X115753142Y-31789714D01*
X115896000Y-31789714D01*
X115991238Y-31837333D01*
X117086476Y-31456380D02*
X117419809Y-32456380D01*
X117753142Y-31456380D01*
X118086476Y-31456380D02*
X118086476Y-32265904D01*
X118134095Y-32361142D01*
X118181714Y-32408761D01*
X118276952Y-32456380D01*
X118467428Y-32456380D01*
X118562666Y-32408761D01*
X118610285Y-32361142D01*
X118657904Y-32265904D01*
X118657904Y-31456380D01*
X119896000Y-32456380D02*
X119896000Y-31789714D01*
X119896000Y-31884952D02*
X119943619Y-31837333D01*
X120038857Y-31789714D01*
X120181714Y-31789714D01*
X120276952Y-31837333D01*
X120324571Y-31932571D01*
X120324571Y-32456380D01*
X120324571Y-31932571D02*
X120372190Y-31837333D01*
X120467428Y-31789714D01*
X120610285Y-31789714D01*
X120705523Y-31837333D01*
X120753142Y-31932571D01*
X120753142Y-32456380D01*
X121610285Y-32408761D02*
X121515047Y-32456380D01*
X121324571Y-32456380D01*
X121229333Y-32408761D01*
X121181714Y-32313523D01*
X121181714Y-31932571D01*
X121229333Y-31837333D01*
X121324571Y-31789714D01*
X121515047Y-31789714D01*
X121610285Y-31837333D01*
X121657904Y-31932571D01*
X121657904Y-32027809D01*
X121181714Y-32123047D01*
X121943619Y-31789714D02*
X122324571Y-31789714D01*
X122086476Y-31456380D02*
X122086476Y-32313523D01*
X122134095Y-32408761D01*
X122229333Y-32456380D01*
X122324571Y-32456380D01*
X123038857Y-32408761D02*
X122943619Y-32456380D01*
X122753142Y-32456380D01*
X122657904Y-32408761D01*
X122610285Y-32313523D01*
X122610285Y-31932571D01*
X122657904Y-31837333D01*
X122753142Y-31789714D01*
X122943619Y-31789714D01*
X123038857Y-31837333D01*
X123086476Y-31932571D01*
X123086476Y-32027809D01*
X122610285Y-32123047D01*
X123515047Y-32456380D02*
X123515047Y-31789714D01*
X123515047Y-31980190D02*
X123562666Y-31884952D01*
X123610285Y-31837333D01*
X123705523Y-31789714D01*
X123800761Y-31789714D01*
X124848380Y-32408761D02*
X124943619Y-32456380D01*
X125134095Y-32456380D01*
X125229333Y-32408761D01*
X125276952Y-32313523D01*
X125276952Y-32265904D01*
X125229333Y-32170666D01*
X125134095Y-32123047D01*
X124991238Y-32123047D01*
X124896000Y-32075428D01*
X124848380Y-31980190D01*
X124848380Y-31932571D01*
X124896000Y-31837333D01*
X124991238Y-31789714D01*
X125134095Y-31789714D01*
X125229333Y-31837333D01*
X125562666Y-31789714D02*
X125943619Y-31789714D01*
X125705523Y-31456380D02*
X125705523Y-32313523D01*
X125753142Y-32408761D01*
X125848380Y-32456380D01*
X125943619Y-32456380D01*
X126705523Y-31789714D02*
X126705523Y-32456380D01*
X126276952Y-31789714D02*
X126276952Y-32313523D01*
X126324571Y-32408761D01*
X126419809Y-32456380D01*
X126562666Y-32456380D01*
X126657904Y-32408761D01*
X126705523Y-32361142D01*
X127038857Y-31789714D02*
X127419809Y-31789714D01*
X127181714Y-32456380D02*
X127181714Y-31599238D01*
X127229333Y-31504000D01*
X127324571Y-31456380D01*
X127419809Y-31456380D01*
X127610285Y-31789714D02*
X127991238Y-31789714D01*
X127753142Y-32456380D02*
X127753142Y-31599238D01*
X127800761Y-31504000D01*
X127896000Y-31456380D01*
X127991238Y-31456380D01*
X128372190Y-32408761D02*
X128372190Y-32456380D01*
X128324571Y-32551619D01*
X128276952Y-32599238D01*
X129991238Y-32456380D02*
X129991238Y-31932571D01*
X129943619Y-31837333D01*
X129848380Y-31789714D01*
X129657904Y-31789714D01*
X129562666Y-31837333D01*
X129991238Y-32408761D02*
X129896000Y-32456380D01*
X129657904Y-32456380D01*
X129562666Y-32408761D01*
X129515047Y-32313523D01*
X129515047Y-32218285D01*
X129562666Y-32123047D01*
X129657904Y-32075428D01*
X129896000Y-32075428D01*
X129991238Y-32027809D01*
X130467428Y-31789714D02*
X130467428Y-32456380D01*
X130467428Y-31884952D02*
X130515047Y-31837333D01*
X130610285Y-31789714D01*
X130753142Y-31789714D01*
X130848380Y-31837333D01*
X130896000Y-31932571D01*
X130896000Y-32456380D01*
X131276952Y-31789714D02*
X131515047Y-32456380D01*
X131753142Y-31789714D02*
X131515047Y-32456380D01*
X131419809Y-32694476D01*
X131372190Y-32742095D01*
X131276952Y-32789714D01*
X132134095Y-32456380D02*
X132134095Y-31456380D01*
X132562666Y-32456380D02*
X132562666Y-31932571D01*
X132515047Y-31837333D01*
X132419809Y-31789714D01*
X132276952Y-31789714D01*
X132181714Y-31837333D01*
X132134095Y-31884952D01*
X133181714Y-32456380D02*
X133086476Y-32408761D01*
X133038857Y-32361142D01*
X132991238Y-32265904D01*
X132991238Y-31980190D01*
X133038857Y-31884952D01*
X133086476Y-31837333D01*
X133181714Y-31789714D01*
X133324571Y-31789714D01*
X133419809Y-31837333D01*
X133467428Y-31884952D01*
X133515047Y-31980190D01*
X133515047Y-32265904D01*
X133467428Y-32361142D01*
X133419809Y-32408761D01*
X133324571Y-32456380D01*
X133181714Y-32456380D01*
X133848380Y-31789714D02*
X134038857Y-32456380D01*
X134229333Y-31980190D01*
X134419809Y-32456380D01*
X134610285Y-31789714D01*
X135134095Y-32361142D02*
X135181714Y-32408761D01*
X135134095Y-32456380D01*
X135086476Y-32408761D01*
X135134095Y-32361142D01*
X135134095Y-32456380D01*
X134943619Y-31504000D02*
X135038857Y-31456380D01*
X135276952Y-31456380D01*
X135372190Y-31504000D01*
X135419809Y-31599238D01*
X135419809Y-31694476D01*
X135372190Y-31789714D01*
X135324571Y-31837333D01*
X135229333Y-31884952D01*
X135181714Y-31932571D01*
X135134095Y-32027809D01*
X135134095Y-32075428D01*
X85646380Y-61239380D02*
X85979714Y-62239380D01*
X86313047Y-61239380D01*
X87170190Y-62239380D02*
X86598761Y-62239380D01*
X86884476Y-62239380D02*
X86884476Y-61239380D01*
X86789238Y-61382238D01*
X86694000Y-61477476D01*
X86598761Y-61525095D01*
X88551142Y-61239380D02*
X88646380Y-61239380D01*
X88741619Y-61287000D01*
X88789238Y-61334619D01*
X88836857Y-61429857D01*
X88884476Y-61620333D01*
X88884476Y-61858428D01*
X88836857Y-62048904D01*
X88789238Y-62144142D01*
X88741619Y-62191761D01*
X88646380Y-62239380D01*
X88551142Y-62239380D01*
X88455904Y-62191761D01*
X88408285Y-62144142D01*
X88360666Y-62048904D01*
X88313047Y-61858428D01*
X88313047Y-61620333D01*
X88360666Y-61429857D01*
X88408285Y-61334619D01*
X88455904Y-61287000D01*
X88551142Y-61239380D01*
X89455904Y-61667952D02*
X89360666Y-61620333D01*
X89313047Y-61572714D01*
X89265428Y-61477476D01*
X89265428Y-61429857D01*
X89313047Y-61334619D01*
X89360666Y-61287000D01*
X89455904Y-61239380D01*
X89646380Y-61239380D01*
X89741619Y-61287000D01*
X89789238Y-61334619D01*
X89836857Y-61429857D01*
X89836857Y-61477476D01*
X89789238Y-61572714D01*
X89741619Y-61620333D01*
X89646380Y-61667952D01*
X89455904Y-61667952D01*
X89360666Y-61715571D01*
X89313047Y-61763190D01*
X89265428Y-61858428D01*
X89265428Y-62048904D01*
X89313047Y-62144142D01*
X89360666Y-62191761D01*
X89455904Y-62239380D01*
X89646380Y-62239380D01*
X89741619Y-62191761D01*
X89789238Y-62144142D01*
X89836857Y-62048904D01*
X89836857Y-61858428D01*
X89789238Y-61763190D01*
X89741619Y-61715571D01*
X89646380Y-61667952D01*
X90979714Y-61191761D02*
X90122571Y-62477476D01*
X91503523Y-61239380D02*
X91598761Y-61239380D01*
X91694000Y-61287000D01*
X91741619Y-61334619D01*
X91789238Y-61429857D01*
X91836857Y-61620333D01*
X91836857Y-61858428D01*
X91789238Y-62048904D01*
X91741619Y-62144142D01*
X91694000Y-62191761D01*
X91598761Y-62239380D01*
X91503523Y-62239380D01*
X91408285Y-62191761D01*
X91360666Y-62144142D01*
X91313047Y-62048904D01*
X91265428Y-61858428D01*
X91265428Y-61620333D01*
X91313047Y-61429857D01*
X91360666Y-61334619D01*
X91408285Y-61287000D01*
X91503523Y-61239380D01*
X92741619Y-61239380D02*
X92265428Y-61239380D01*
X92217809Y-61715571D01*
X92265428Y-61667952D01*
X92360666Y-61620333D01*
X92598761Y-61620333D01*
X92694000Y-61667952D01*
X92741619Y-61715571D01*
X92789238Y-61810809D01*
X92789238Y-62048904D01*
X92741619Y-62144142D01*
X92694000Y-62191761D01*
X92598761Y-62239380D01*
X92360666Y-62239380D01*
X92265428Y-62191761D01*
X92217809Y-62144142D01*
X93932095Y-61191761D02*
X93074952Y-62477476D01*
X94217809Y-61334619D02*
X94265428Y-61287000D01*
X94360666Y-61239380D01*
X94598761Y-61239380D01*
X94694000Y-61287000D01*
X94741619Y-61334619D01*
X94789238Y-61429857D01*
X94789238Y-61525095D01*
X94741619Y-61667952D01*
X94170190Y-62239380D01*
X94789238Y-62239380D01*
X95408285Y-61239380D02*
X95503523Y-61239380D01*
X95598761Y-61287000D01*
X95646380Y-61334619D01*
X95694000Y-61429857D01*
X95741619Y-61620333D01*
X95741619Y-61858428D01*
X95694000Y-62048904D01*
X95646380Y-62144142D01*
X95598761Y-62191761D01*
X95503523Y-62239380D01*
X95408285Y-62239380D01*
X95313047Y-62191761D01*
X95265428Y-62144142D01*
X95217809Y-62048904D01*
X95170190Y-61858428D01*
X95170190Y-61620333D01*
X95217809Y-61429857D01*
X95265428Y-61334619D01*
X95313047Y-61287000D01*
X95408285Y-61239380D01*
X96122571Y-61334619D02*
X96170190Y-61287000D01*
X96265428Y-61239380D01*
X96503523Y-61239380D01*
X96598761Y-61287000D01*
X96646380Y-61334619D01*
X96693999Y-61429857D01*
X96693999Y-61525095D01*
X96646380Y-61667952D01*
X96074952Y-62239380D01*
X96693999Y-62239380D01*
X97313047Y-61239380D02*
X97408285Y-61239380D01*
X97503523Y-61287000D01*
X97551142Y-61334619D01*
X97598761Y-61429857D01*
X97646380Y-61620333D01*
X97646380Y-61858428D01*
X97598761Y-62048904D01*
X97551142Y-62144142D01*
X97503523Y-62191761D01*
X97408285Y-62239380D01*
X97313047Y-62239380D01*
X97217809Y-62191761D01*
X97170190Y-62144142D01*
X97122571Y-62048904D01*
X97074952Y-61858428D01*
X97074952Y-61620333D01*
X97122571Y-61429857D01*
X97170190Y-61334619D01*
X97217809Y-61287000D01*
X97313047Y-61239380D01*
X86789238Y-62937000D02*
X86694000Y-62889380D01*
X86551142Y-62889380D01*
X86408285Y-62937000D01*
X86313047Y-63032238D01*
X86265428Y-63127476D01*
X86217809Y-63317952D01*
X86217809Y-63460809D01*
X86265428Y-63651285D01*
X86313047Y-63746523D01*
X86408285Y-63841761D01*
X86551142Y-63889380D01*
X86646380Y-63889380D01*
X86789238Y-63841761D01*
X86836857Y-63794142D01*
X86836857Y-63460809D01*
X86646380Y-63460809D01*
X87694000Y-63889380D02*
X87694000Y-63365571D01*
X87646380Y-63270333D01*
X87551142Y-63222714D01*
X87360666Y-63222714D01*
X87265428Y-63270333D01*
X87694000Y-63841761D02*
X87598761Y-63889380D01*
X87360666Y-63889380D01*
X87265428Y-63841761D01*
X87217809Y-63746523D01*
X87217809Y-63651285D01*
X87265428Y-63556047D01*
X87360666Y-63508428D01*
X87598761Y-63508428D01*
X87694000Y-63460809D01*
X88170190Y-63889380D02*
X88170190Y-62889380D01*
X88170190Y-63270333D02*
X88265428Y-63222714D01*
X88455904Y-63222714D01*
X88551142Y-63270333D01*
X88598761Y-63317952D01*
X88646380Y-63413190D01*
X88646380Y-63698904D01*
X88598761Y-63794142D01*
X88551142Y-63841761D01*
X88455904Y-63889380D01*
X88265428Y-63889380D01*
X88170190Y-63841761D01*
X89455904Y-63841761D02*
X89360666Y-63889380D01*
X89170190Y-63889380D01*
X89074952Y-63841761D01*
X89027333Y-63746523D01*
X89027333Y-63365571D01*
X89074952Y-63270333D01*
X89170190Y-63222714D01*
X89360666Y-63222714D01*
X89455904Y-63270333D01*
X89503523Y-63365571D01*
X89503523Y-63460809D01*
X89027333Y-63556047D01*
X90694000Y-63889380D02*
X90694000Y-62889380D01*
X91265428Y-63889380D02*
X90836857Y-63317952D01*
X91265428Y-62889380D02*
X90694000Y-63460809D01*
X91694000Y-63889380D02*
X91694000Y-63222714D01*
X91694000Y-63413190D02*
X91741619Y-63317952D01*
X91789238Y-63270333D01*
X91884476Y-63222714D01*
X91979714Y-63222714D01*
X92741619Y-63222714D02*
X92741619Y-63889380D01*
X92313047Y-63222714D02*
X92313047Y-63746523D01*
X92360666Y-63841761D01*
X92455904Y-63889380D01*
X92598761Y-63889380D01*
X92694000Y-63841761D01*
X92741619Y-63794142D01*
X93646380Y-63222714D02*
X93646380Y-64032238D01*
X93598761Y-64127476D01*
X93551142Y-64175095D01*
X93455904Y-64222714D01*
X93313047Y-64222714D01*
X93217809Y-64175095D01*
X93646380Y-63841761D02*
X93551142Y-63889380D01*
X93360666Y-63889380D01*
X93265428Y-63841761D01*
X93217809Y-63794142D01*
X93170190Y-63698904D01*
X93170190Y-63413190D01*
X93217809Y-63317952D01*
X93265428Y-63270333D01*
X93360666Y-63222714D01*
X93551142Y-63222714D01*
X93646380Y-63270333D01*
X94265428Y-63889380D02*
X94170190Y-63841761D01*
X94122571Y-63746523D01*
X94122571Y-62889380D01*
X94646380Y-63889380D02*
X94646380Y-63222714D01*
X94646380Y-62889380D02*
X94598761Y-62937000D01*
X94646380Y-62984619D01*
X94694000Y-62937000D01*
X94646380Y-62889380D01*
X94646380Y-62984619D01*
X95122571Y-63889380D02*
X95122571Y-62889380D01*
X95217809Y-63508428D02*
X95503523Y-63889380D01*
X95503523Y-63222714D02*
X95122571Y-63603666D01*
X96074952Y-63889380D02*
X95979714Y-63841761D01*
X95932095Y-63794142D01*
X95884476Y-63698904D01*
X95884476Y-63413190D01*
X95932095Y-63317952D01*
X95979714Y-63270333D01*
X96074952Y-63222714D01*
X96217809Y-63222714D01*
X96313047Y-63270333D01*
X96360666Y-63317952D01*
X96408285Y-63413190D01*
X96408285Y-63698904D01*
X96360666Y-63794142D01*
X96313047Y-63841761D01*
X96217809Y-63889380D01*
X96074952Y-63889380D01*
X96741619Y-63222714D02*
X96979714Y-63889380D01*
X97217809Y-63222714D01*
X87122571Y-64539380D02*
X87122571Y-64729857D01*
X87503523Y-64539380D02*
X87503523Y-64729857D01*
X87884476Y-65253666D02*
X88360666Y-65253666D01*
X87789238Y-65539380D02*
X88122571Y-64539380D01*
X88455904Y-65539380D01*
X88789238Y-64872714D02*
X88789238Y-65539380D01*
X88789238Y-64967952D02*
X88836857Y-64920333D01*
X88932095Y-64872714D01*
X89074952Y-64872714D01*
X89170190Y-64920333D01*
X89217809Y-65015571D01*
X89217809Y-65539380D01*
X90122571Y-65539380D02*
X90122571Y-64539380D01*
X90122571Y-65491761D02*
X90027333Y-65539380D01*
X89836857Y-65539380D01*
X89741619Y-65491761D01*
X89694000Y-65444142D01*
X89646380Y-65348904D01*
X89646380Y-65063190D01*
X89694000Y-64967952D01*
X89741619Y-64920333D01*
X89836857Y-64872714D01*
X90027333Y-64872714D01*
X90122571Y-64920333D01*
X91360666Y-65015571D02*
X91694000Y-65015571D01*
X91836857Y-65539380D02*
X91360666Y-65539380D01*
X91360666Y-64539380D01*
X91836857Y-64539380D01*
X92217809Y-65491761D02*
X92313047Y-65539380D01*
X92503523Y-65539380D01*
X92598761Y-65491761D01*
X92646380Y-65396523D01*
X92646380Y-65348904D01*
X92598761Y-65253666D01*
X92503523Y-65206047D01*
X92360666Y-65206047D01*
X92265428Y-65158428D01*
X92217809Y-65063190D01*
X92217809Y-65015571D01*
X92265428Y-64920333D01*
X92360666Y-64872714D01*
X92503523Y-64872714D01*
X92598761Y-64920333D01*
X92979714Y-64872714D02*
X93503523Y-64872714D01*
X92979714Y-65539380D01*
X93503523Y-65539380D01*
X93741619Y-64872714D02*
X94122571Y-64872714D01*
X93884476Y-64539380D02*
X93884476Y-65396523D01*
X93932095Y-65491761D01*
X94027333Y-65539380D01*
X94122571Y-65539380D01*
X94836857Y-65491761D02*
X94741619Y-65539380D01*
X94551142Y-65539380D01*
X94455904Y-65491761D01*
X94408285Y-65396523D01*
X94408285Y-65015571D01*
X94455904Y-64920333D01*
X94551142Y-64872714D01*
X94741619Y-64872714D01*
X94836857Y-64920333D01*
X94884476Y-65015571D01*
X94884476Y-65110809D01*
X94408285Y-65206047D01*
X95313047Y-65539380D02*
X95313047Y-64872714D01*
X95313047Y-65063190D02*
X95360666Y-64967952D01*
X95408285Y-64920333D01*
X95503523Y-64872714D01*
X95598761Y-64872714D01*
X95884476Y-64539380D02*
X95884476Y-64729857D01*
X96265428Y-64539380D02*
X96265428Y-64729857D01*
X89027333Y-66808428D02*
X89789238Y-66808428D01*
X90265428Y-66665571D02*
X90598761Y-66665571D01*
X90741619Y-67189380D02*
X90265428Y-67189380D01*
X90265428Y-66189380D01*
X90741619Y-66189380D01*
X91122571Y-67141761D02*
X91217809Y-67189380D01*
X91408285Y-67189380D01*
X91503523Y-67141761D01*
X91551142Y-67046523D01*
X91551142Y-66998904D01*
X91503523Y-66903666D01*
X91408285Y-66856047D01*
X91265428Y-66856047D01*
X91170190Y-66808428D01*
X91122571Y-66713190D01*
X91122571Y-66665571D01*
X91170190Y-66570333D01*
X91265428Y-66522714D01*
X91408285Y-66522714D01*
X91503523Y-66570333D01*
X91884476Y-66522714D02*
X92408285Y-66522714D01*
X91884476Y-67189380D01*
X92408285Y-67189380D01*
X92646380Y-66522714D02*
X93027333Y-66522714D01*
X92789238Y-66189380D02*
X92789238Y-67046523D01*
X92836857Y-67141761D01*
X92932095Y-67189380D01*
X93027333Y-67189380D01*
X93741619Y-67141761D02*
X93646380Y-67189380D01*
X93455904Y-67189380D01*
X93360666Y-67141761D01*
X93313047Y-67046523D01*
X93313047Y-66665571D01*
X93360666Y-66570333D01*
X93455904Y-66522714D01*
X93646380Y-66522714D01*
X93741619Y-66570333D01*
X93789238Y-66665571D01*
X93789238Y-66760809D01*
X93313047Y-66856047D01*
X94217809Y-67189380D02*
X94217809Y-66522714D01*
X94217809Y-66713190D02*
X94265428Y-66617952D01*
X94313047Y-66570333D01*
X94408285Y-66522714D01*
X94503523Y-66522714D01*
D11*
%TO.C,U3*%
X126916000Y-55855333D02*
X126916000Y-59361999D01*
X127276000Y-55855333D02*
X126916000Y-55855333D01*
X127276000Y-52348667D02*
X127276000Y-55855333D01*
X126916000Y-52348667D02*
X127276000Y-52348667D01*
X126916000Y-48842000D02*
X126916000Y-52348667D01*
X149436000Y-48842001D02*
X126916000Y-48842000D01*
X149436000Y-59362000D02*
X149436000Y-48842001D01*
X126916000Y-59361999D02*
X149436000Y-59362000D01*
%TO.C,U2*%
X101516000Y-56109333D02*
X101516000Y-59615999D01*
X101876000Y-56109333D02*
X101516000Y-56109333D01*
X101876000Y-52602667D02*
X101876000Y-56109333D01*
X101516000Y-52602667D02*
X101876000Y-52602667D01*
X101516000Y-49096000D02*
X101516000Y-52602667D01*
X124036000Y-49096001D02*
X101516000Y-49096000D01*
X124036000Y-59616000D02*
X124036000Y-49096001D01*
X101516000Y-59615999D02*
X124036000Y-59616000D01*
%TO.C,U1*%
X118480000Y-79223333D02*
X118480000Y-82730000D01*
X118840000Y-79223333D02*
X118480000Y-79223333D01*
X118840000Y-75716667D02*
X118840000Y-79223333D01*
X118480000Y-75716667D02*
X118840000Y-75716667D01*
X118480000Y-72210000D02*
X118480000Y-75716667D01*
X127900000Y-72210000D02*
X118480000Y-72210000D01*
X127900000Y-82730000D02*
X127900000Y-72210000D01*
X118480000Y-82730000D02*
X127900000Y-82730000D01*
%TO.C,R21*%
X98754000Y-83062578D02*
X98754000Y-82545422D01*
X97334000Y-83062578D02*
X97334000Y-82545422D01*
%TO.C,R20*%
X144474000Y-83062578D02*
X144474000Y-82545422D01*
X143054000Y-83062578D02*
X143054000Y-82545422D01*
%TO.C,R19*%
X105405422Y-75894000D02*
X105922578Y-75894000D01*
X105405422Y-74474000D02*
X105922578Y-74474000D01*
%TO.C,R18*%
X150617422Y-75894000D02*
X151134578Y-75894000D01*
X150617422Y-74474000D02*
X151134578Y-74474000D01*
%TO.C,R17*%
X99055422Y-75894000D02*
X99572578Y-75894000D01*
X99055422Y-74474000D02*
X99572578Y-74474000D01*
%TO.C,R16*%
X144013422Y-75894000D02*
X144530578Y-75894000D01*
X144013422Y-74474000D02*
X144530578Y-74474000D01*
%TO.C,R15*%
X120391422Y-87070000D02*
X120908578Y-87070000D01*
X120391422Y-85650000D02*
X120908578Y-85650000D01*
%TO.C,R14*%
X117421922Y-69798000D02*
X117939078Y-69798000D01*
X117421922Y-68378000D02*
X117939078Y-68378000D01*
%TO.C,R13*%
X126067078Y-85650000D02*
X125549922Y-85650000D01*
X126067078Y-87070000D02*
X125549922Y-87070000D01*
%TO.C,R12*%
X122511078Y-68378000D02*
X121993922Y-68378000D01*
X122511078Y-69798000D02*
X121993922Y-69798000D01*
%TO.C,R11*%
X109780000Y-75687422D02*
X109780000Y-76204578D01*
X111200000Y-75687422D02*
X111200000Y-76204578D01*
%TO.C,R10*%
X126565922Y-66242000D02*
X127083078Y-66242000D01*
X126565922Y-64822000D02*
X127083078Y-64822000D01*
%TO.C,R9*%
X121993922Y-66242000D02*
X122511078Y-66242000D01*
X121993922Y-64822000D02*
X122511078Y-64822000D01*
%TO.C,R8*%
X125471422Y-92150000D02*
X125988578Y-92150000D01*
X125471422Y-90730000D02*
X125988578Y-90730000D01*
%TO.C,R7*%
X120391422Y-92150000D02*
X120908578Y-92150000D01*
X120391422Y-90730000D02*
X120908578Y-90730000D01*
%TO.C,R6*%
X147626000Y-67637922D02*
X147626000Y-68155078D01*
X149046000Y-67637922D02*
X149046000Y-68155078D01*
%TO.C,R5*%
X118036078Y-64822000D02*
X117518922Y-64822000D01*
X118036078Y-66242000D02*
X117518922Y-66242000D01*
%TO.C,R4*%
X147149078Y-62028000D02*
X146631922Y-62028000D01*
X147149078Y-63448000D02*
X146631922Y-63448000D01*
%TO.C,R3*%
X141473422Y-63448000D02*
X141990578Y-63448000D01*
X141473422Y-62028000D02*
X141990578Y-62028000D01*
%TO.C,R2*%
X124132078Y-61520000D02*
X123614922Y-61520000D01*
X124132078Y-62940000D02*
X123614922Y-62940000D01*
%TO.C,R1*%
X118691922Y-62940000D02*
X119209078Y-62940000D01*
X118691922Y-61520000D02*
X119209078Y-61520000D01*
%TO.C,MK1*%
X108990000Y-82296000D02*
X111990000Y-82296000D01*
X111990000Y-85896000D02*
X108990000Y-85896000D01*
X111990000Y-78696000D02*
X111990000Y-85896000D01*
X108990000Y-78696000D02*
X111990000Y-78696000D01*
X108990000Y-85896000D02*
X108990000Y-78696000D01*
%TO.C,J1*%
X90448000Y-52030000D02*
X93448000Y-52030000D01*
X93448000Y-55630000D02*
X90448000Y-55630000D01*
X93448000Y-48430000D02*
X93448000Y-55630000D01*
X90448000Y-48430000D02*
X93448000Y-48430000D01*
X90448000Y-55630000D02*
X90448000Y-48430000D01*
%TO.C,D6*%
X100334000Y-77874000D02*
X100334000Y-80114000D01*
X100574000Y-77874000D02*
X100574000Y-80114000D01*
X100454000Y-77874000D02*
X100454000Y-80114000D01*
X104624000Y-78994000D02*
X103974000Y-78994000D01*
X99084000Y-78994000D02*
X99734000Y-78994000D01*
X103974000Y-77874000D02*
X99734000Y-77874000D01*
X103974000Y-80114000D02*
X103974000Y-77874000D01*
X99734000Y-80114000D02*
X103974000Y-80114000D01*
X99734000Y-77874000D02*
X99734000Y-80114000D01*
%TO.C,D5*%
X146054000Y-77874000D02*
X146054000Y-80114000D01*
X146294000Y-77874000D02*
X146294000Y-80114000D01*
X146174000Y-77874000D02*
X146174000Y-80114000D01*
X150344000Y-78994000D02*
X149694000Y-78994000D01*
X144804000Y-78994000D02*
X145454000Y-78994000D01*
X149694000Y-77874000D02*
X145454000Y-77874000D01*
X149694000Y-80114000D02*
X149694000Y-77874000D01*
X145454000Y-80114000D02*
X149694000Y-80114000D01*
X145454000Y-77874000D02*
X145454000Y-80114000D01*
%TO.C,D4*%
X91844000Y-80514000D02*
X94084000Y-80514000D01*
X91844000Y-80274000D02*
X94084000Y-80274000D01*
X91844000Y-80394000D02*
X94084000Y-80394000D01*
X92964000Y-76224000D02*
X92964000Y-76874000D01*
X92964000Y-81764000D02*
X92964000Y-81114000D01*
X91844000Y-76874000D02*
X91844000Y-81114000D01*
X94084000Y-76874000D02*
X91844000Y-76874000D01*
X94084000Y-81114000D02*
X94084000Y-76874000D01*
X91844000Y-81114000D02*
X94084000Y-81114000D01*
%TO.C,D3*%
X136802000Y-80768000D02*
X139042000Y-80768000D01*
X136802000Y-80528000D02*
X139042000Y-80528000D01*
X136802000Y-80648000D02*
X139042000Y-80648000D01*
X137922000Y-76478000D02*
X137922000Y-77128000D01*
X137922000Y-82018000D02*
X137922000Y-81368000D01*
X136802000Y-77128000D02*
X136802000Y-81368000D01*
X139042000Y-77128000D02*
X136802000Y-77128000D01*
X139042000Y-81368000D02*
X139042000Y-77128000D01*
X136802000Y-81368000D02*
X139042000Y-81368000D01*
%TO.C,D2*%
X124376000Y-43663333D02*
X124376000Y-47169999D01*
X124736000Y-43663333D02*
X124376000Y-43663333D01*
X124736000Y-40156667D02*
X124736000Y-43663333D01*
X124376000Y-40156667D02*
X124736000Y-40156667D01*
X124376000Y-36650000D02*
X124376000Y-40156667D01*
X149436000Y-36650001D02*
X124376000Y-36650000D01*
X149436000Y-47170000D02*
X149436000Y-36650001D01*
X124376000Y-47169999D02*
X149436000Y-47170000D01*
%TO.C,D1*%
X98976000Y-43663333D02*
X98976000Y-47169999D01*
X99336000Y-43663333D02*
X98976000Y-43663333D01*
X99336000Y-40156667D02*
X99336000Y-43663333D01*
X98976000Y-40156667D02*
X99336000Y-40156667D01*
X98976000Y-36650000D02*
X98976000Y-40156667D01*
X124036000Y-36650001D02*
X98976000Y-36650000D01*
X124036000Y-47170000D02*
X124036000Y-36650001D01*
X98976000Y-47169999D02*
X124036000Y-47170000D01*
%TO.C,C13*%
X106374000Y-83062578D02*
X106374000Y-82545422D01*
X104954000Y-83062578D02*
X104954000Y-82545422D01*
%TO.C,C12*%
X152094000Y-83062578D02*
X152094000Y-82545422D01*
X150674000Y-83062578D02*
X150674000Y-82545422D01*
%TO.C,C11*%
X117042000Y-85524078D02*
X117042000Y-85006922D01*
X115622000Y-85524078D02*
X115622000Y-85006922D01*
%TO.C,C10*%
X131821422Y-74370000D02*
X132338578Y-74370000D01*
X131821422Y-72950000D02*
X132338578Y-72950000D01*
%TO.C,C9*%
X131068578Y-85650000D02*
X130551422Y-85650000D01*
X131068578Y-87070000D02*
X130551422Y-87070000D01*
%TO.C,C8*%
X127180078Y-68378000D02*
X126662922Y-68378000D01*
X127180078Y-69798000D02*
X126662922Y-69798000D01*
%TO.C,C7*%
X114860000Y-78656922D02*
X114860000Y-79174078D01*
X116280000Y-78656922D02*
X116280000Y-79174078D01*
%TO.C,C6*%
X130354000Y-78305922D02*
X130354000Y-78823078D01*
X131774000Y-78305922D02*
X131774000Y-78823078D01*
%TO.C,C5*%
X132260078Y-66092000D02*
X131742922Y-66092000D01*
X132260078Y-67512000D02*
X131742922Y-67512000D01*
%TO.C,C4*%
X106860078Y-61774000D02*
X106342922Y-61774000D01*
X106860078Y-63194000D02*
X106342922Y-63194000D01*
%TO.C,C3*%
X91238000Y-38681922D02*
X91238000Y-39199078D01*
X92658000Y-38681922D02*
X92658000Y-39199078D01*
%TO.C,C2*%
X132260078Y-62790000D02*
X131742922Y-62790000D01*
X132260078Y-64210000D02*
X131742922Y-64210000D01*
%TO.C,C1*%
X106860078Y-65330000D02*
X106342922Y-65330000D01*
X106860078Y-66750000D02*
X106342922Y-66750000D01*
%TO.C,U3*%
D10*
X125368380Y-54863904D02*
X126177904Y-54863904D01*
X126273142Y-54816285D01*
X126320761Y-54768666D01*
X126368380Y-54673428D01*
X126368380Y-54482952D01*
X126320761Y-54387714D01*
X126273142Y-54340095D01*
X126177904Y-54292476D01*
X125368380Y-54292476D01*
X125368380Y-53911523D02*
X125368380Y-53292476D01*
X125749333Y-53625809D01*
X125749333Y-53482952D01*
X125796952Y-53387714D01*
X125844571Y-53340095D01*
X125939809Y-53292476D01*
X126177904Y-53292476D01*
X126273142Y-53340095D01*
X126320761Y-53387714D01*
X126368380Y-53482952D01*
X126368380Y-53768666D01*
X126320761Y-53863904D01*
X126273142Y-53911523D01*
%TO.C,U2*%
X99968380Y-55117904D02*
X100777904Y-55117904D01*
X100873142Y-55070285D01*
X100920761Y-55022666D01*
X100968380Y-54927428D01*
X100968380Y-54736952D01*
X100920761Y-54641714D01*
X100873142Y-54594095D01*
X100777904Y-54546476D01*
X99968380Y-54546476D01*
X100063619Y-54117904D02*
X100016000Y-54070285D01*
X99968380Y-53975047D01*
X99968380Y-53736952D01*
X100016000Y-53641714D01*
X100063619Y-53594095D01*
X100158857Y-53546476D01*
X100254095Y-53546476D01*
X100396952Y-53594095D01*
X100968380Y-54165523D01*
X100968380Y-53546476D01*
%TO.C,U1*%
X116932380Y-78231904D02*
X117741904Y-78231904D01*
X117837142Y-78184285D01*
X117884761Y-78136666D01*
X117932380Y-78041428D01*
X117932380Y-77850952D01*
X117884761Y-77755714D01*
X117837142Y-77708095D01*
X117741904Y-77660476D01*
X116932380Y-77660476D01*
X117932380Y-76660476D02*
X117932380Y-77231904D01*
X117932380Y-76946190D02*
X116932380Y-76946190D01*
X117075238Y-77041428D01*
X117170476Y-77136666D01*
X117218095Y-77231904D01*
%TO.C,R21*%
X96846380Y-83446857D02*
X96370190Y-83780190D01*
X96846380Y-84018285D02*
X95846380Y-84018285D01*
X95846380Y-83637333D01*
X95894000Y-83542095D01*
X95941619Y-83494476D01*
X96036857Y-83446857D01*
X96179714Y-83446857D01*
X96274952Y-83494476D01*
X96322571Y-83542095D01*
X96370190Y-83637333D01*
X96370190Y-84018285D01*
X95941619Y-83065904D02*
X95894000Y-83018285D01*
X95846380Y-82923047D01*
X95846380Y-82684952D01*
X95894000Y-82589714D01*
X95941619Y-82542095D01*
X96036857Y-82494476D01*
X96132095Y-82494476D01*
X96274952Y-82542095D01*
X96846380Y-83113523D01*
X96846380Y-82494476D01*
X96846380Y-81542095D02*
X96846380Y-82113523D01*
X96846380Y-81827809D02*
X95846380Y-81827809D01*
X95989238Y-81923047D01*
X96084476Y-82018285D01*
X96132095Y-82113523D01*
%TO.C,R20*%
X142566380Y-83446857D02*
X142090190Y-83780190D01*
X142566380Y-84018285D02*
X141566380Y-84018285D01*
X141566380Y-83637333D01*
X141614000Y-83542095D01*
X141661619Y-83494476D01*
X141756857Y-83446857D01*
X141899714Y-83446857D01*
X141994952Y-83494476D01*
X142042571Y-83542095D01*
X142090190Y-83637333D01*
X142090190Y-84018285D01*
X141661619Y-83065904D02*
X141614000Y-83018285D01*
X141566380Y-82923047D01*
X141566380Y-82684952D01*
X141614000Y-82589714D01*
X141661619Y-82542095D01*
X141756857Y-82494476D01*
X141852095Y-82494476D01*
X141994952Y-82542095D01*
X142566380Y-83113523D01*
X142566380Y-82494476D01*
X141566380Y-81875428D02*
X141566380Y-81780190D01*
X141614000Y-81684952D01*
X141661619Y-81637333D01*
X141756857Y-81589714D01*
X141947333Y-81542095D01*
X142185428Y-81542095D01*
X142375904Y-81589714D01*
X142471142Y-81637333D01*
X142518761Y-81684952D01*
X142566380Y-81780190D01*
X142566380Y-81875428D01*
X142518761Y-81970666D01*
X142471142Y-82018285D01*
X142375904Y-82065904D01*
X142185428Y-82113523D01*
X141947333Y-82113523D01*
X141756857Y-82065904D01*
X141661619Y-82018285D01*
X141614000Y-81970666D01*
X141566380Y-81875428D01*
%TO.C,R19*%
X105021142Y-73986380D02*
X104687809Y-73510190D01*
X104449714Y-73986380D02*
X104449714Y-72986380D01*
X104830666Y-72986380D01*
X104925904Y-73034000D01*
X104973523Y-73081619D01*
X105021142Y-73176857D01*
X105021142Y-73319714D01*
X104973523Y-73414952D01*
X104925904Y-73462571D01*
X104830666Y-73510190D01*
X104449714Y-73510190D01*
X105973523Y-73986380D02*
X105402095Y-73986380D01*
X105687809Y-73986380D02*
X105687809Y-72986380D01*
X105592571Y-73129238D01*
X105497333Y-73224476D01*
X105402095Y-73272095D01*
X106449714Y-73986380D02*
X106640190Y-73986380D01*
X106735428Y-73938761D01*
X106783047Y-73891142D01*
X106878285Y-73748285D01*
X106925904Y-73557809D01*
X106925904Y-73176857D01*
X106878285Y-73081619D01*
X106830666Y-73034000D01*
X106735428Y-72986380D01*
X106544952Y-72986380D01*
X106449714Y-73034000D01*
X106402095Y-73081619D01*
X106354476Y-73176857D01*
X106354476Y-73414952D01*
X106402095Y-73510190D01*
X106449714Y-73557809D01*
X106544952Y-73605428D01*
X106735428Y-73605428D01*
X106830666Y-73557809D01*
X106878285Y-73510190D01*
X106925904Y-73414952D01*
%TO.C,R18*%
X150233142Y-73986380D02*
X149899809Y-73510190D01*
X149661714Y-73986380D02*
X149661714Y-72986380D01*
X150042666Y-72986380D01*
X150137904Y-73034000D01*
X150185523Y-73081619D01*
X150233142Y-73176857D01*
X150233142Y-73319714D01*
X150185523Y-73414952D01*
X150137904Y-73462571D01*
X150042666Y-73510190D01*
X149661714Y-73510190D01*
X151185523Y-73986380D02*
X150614095Y-73986380D01*
X150899809Y-73986380D02*
X150899809Y-72986380D01*
X150804571Y-73129238D01*
X150709333Y-73224476D01*
X150614095Y-73272095D01*
X151756952Y-73414952D02*
X151661714Y-73367333D01*
X151614095Y-73319714D01*
X151566476Y-73224476D01*
X151566476Y-73176857D01*
X151614095Y-73081619D01*
X151661714Y-73034000D01*
X151756952Y-72986380D01*
X151947428Y-72986380D01*
X152042666Y-73034000D01*
X152090285Y-73081619D01*
X152137904Y-73176857D01*
X152137904Y-73224476D01*
X152090285Y-73319714D01*
X152042666Y-73367333D01*
X151947428Y-73414952D01*
X151756952Y-73414952D01*
X151661714Y-73462571D01*
X151614095Y-73510190D01*
X151566476Y-73605428D01*
X151566476Y-73795904D01*
X151614095Y-73891142D01*
X151661714Y-73938761D01*
X151756952Y-73986380D01*
X151947428Y-73986380D01*
X152042666Y-73938761D01*
X152090285Y-73891142D01*
X152137904Y-73795904D01*
X152137904Y-73605428D01*
X152090285Y-73510190D01*
X152042666Y-73462571D01*
X151947428Y-73414952D01*
%TO.C,R17*%
X98671142Y-73986380D02*
X98337809Y-73510190D01*
X98099714Y-73986380D02*
X98099714Y-72986380D01*
X98480666Y-72986380D01*
X98575904Y-73034000D01*
X98623523Y-73081619D01*
X98671142Y-73176857D01*
X98671142Y-73319714D01*
X98623523Y-73414952D01*
X98575904Y-73462571D01*
X98480666Y-73510190D01*
X98099714Y-73510190D01*
X99623523Y-73986380D02*
X99052095Y-73986380D01*
X99337809Y-73986380D02*
X99337809Y-72986380D01*
X99242571Y-73129238D01*
X99147333Y-73224476D01*
X99052095Y-73272095D01*
X99956857Y-72986380D02*
X100623523Y-72986380D01*
X100194952Y-73986380D01*
%TO.C,R16*%
X143629142Y-73986380D02*
X143295809Y-73510190D01*
X143057714Y-73986380D02*
X143057714Y-72986380D01*
X143438666Y-72986380D01*
X143533904Y-73034000D01*
X143581523Y-73081619D01*
X143629142Y-73176857D01*
X143629142Y-73319714D01*
X143581523Y-73414952D01*
X143533904Y-73462571D01*
X143438666Y-73510190D01*
X143057714Y-73510190D01*
X144581523Y-73986380D02*
X144010095Y-73986380D01*
X144295809Y-73986380D02*
X144295809Y-72986380D01*
X144200571Y-73129238D01*
X144105333Y-73224476D01*
X144010095Y-73272095D01*
X145438666Y-72986380D02*
X145248190Y-72986380D01*
X145152952Y-73034000D01*
X145105333Y-73081619D01*
X145010095Y-73224476D01*
X144962476Y-73414952D01*
X144962476Y-73795904D01*
X145010095Y-73891142D01*
X145057714Y-73938761D01*
X145152952Y-73986380D01*
X145343428Y-73986380D01*
X145438666Y-73938761D01*
X145486285Y-73891142D01*
X145533904Y-73795904D01*
X145533904Y-73557809D01*
X145486285Y-73462571D01*
X145438666Y-73414952D01*
X145343428Y-73367333D01*
X145152952Y-73367333D01*
X145057714Y-73414952D01*
X145010095Y-73462571D01*
X144962476Y-73557809D01*
%TO.C,R15*%
X120007142Y-85162380D02*
X119673809Y-84686190D01*
X119435714Y-85162380D02*
X119435714Y-84162380D01*
X119816666Y-84162380D01*
X119911904Y-84210000D01*
X119959523Y-84257619D01*
X120007142Y-84352857D01*
X120007142Y-84495714D01*
X119959523Y-84590952D01*
X119911904Y-84638571D01*
X119816666Y-84686190D01*
X119435714Y-84686190D01*
X120959523Y-85162380D02*
X120388095Y-85162380D01*
X120673809Y-85162380D02*
X120673809Y-84162380D01*
X120578571Y-84305238D01*
X120483333Y-84400476D01*
X120388095Y-84448095D01*
X121864285Y-84162380D02*
X121388095Y-84162380D01*
X121340476Y-84638571D01*
X121388095Y-84590952D01*
X121483333Y-84543333D01*
X121721428Y-84543333D01*
X121816666Y-84590952D01*
X121864285Y-84638571D01*
X121911904Y-84733809D01*
X121911904Y-84971904D01*
X121864285Y-85067142D01*
X121816666Y-85114761D01*
X121721428Y-85162380D01*
X121483333Y-85162380D01*
X121388095Y-85114761D01*
X121340476Y-85067142D01*
%TO.C,R14*%
X117037642Y-71318380D02*
X116704309Y-70842190D01*
X116466214Y-71318380D02*
X116466214Y-70318380D01*
X116847166Y-70318380D01*
X116942404Y-70366000D01*
X116990023Y-70413619D01*
X117037642Y-70508857D01*
X117037642Y-70651714D01*
X116990023Y-70746952D01*
X116942404Y-70794571D01*
X116847166Y-70842190D01*
X116466214Y-70842190D01*
X117990023Y-71318380D02*
X117418595Y-71318380D01*
X117704309Y-71318380D02*
X117704309Y-70318380D01*
X117609071Y-70461238D01*
X117513833Y-70556476D01*
X117418595Y-70604095D01*
X118847166Y-70651714D02*
X118847166Y-71318380D01*
X118609071Y-70270761D02*
X118370976Y-70985047D01*
X118990023Y-70985047D01*
%TO.C,R13*%
X125087142Y-85034380D02*
X124753809Y-84558190D01*
X124515714Y-85034380D02*
X124515714Y-84034380D01*
X124896666Y-84034380D01*
X124991904Y-84082000D01*
X125039523Y-84129619D01*
X125087142Y-84224857D01*
X125087142Y-84367714D01*
X125039523Y-84462952D01*
X124991904Y-84510571D01*
X124896666Y-84558190D01*
X124515714Y-84558190D01*
X126039523Y-85034380D02*
X125468095Y-85034380D01*
X125753809Y-85034380D02*
X125753809Y-84034380D01*
X125658571Y-84177238D01*
X125563333Y-84272476D01*
X125468095Y-84320095D01*
X126372857Y-84034380D02*
X126991904Y-84034380D01*
X126658571Y-84415333D01*
X126801428Y-84415333D01*
X126896666Y-84462952D01*
X126944285Y-84510571D01*
X126991904Y-84605809D01*
X126991904Y-84843904D01*
X126944285Y-84939142D01*
X126896666Y-84986761D01*
X126801428Y-85034380D01*
X126515714Y-85034380D01*
X126420476Y-84986761D01*
X126372857Y-84939142D01*
%TO.C,R12*%
X121531142Y-71318380D02*
X121197809Y-70842190D01*
X120959714Y-71318380D02*
X120959714Y-70318380D01*
X121340666Y-70318380D01*
X121435904Y-70366000D01*
X121483523Y-70413619D01*
X121531142Y-70508857D01*
X121531142Y-70651714D01*
X121483523Y-70746952D01*
X121435904Y-70794571D01*
X121340666Y-70842190D01*
X120959714Y-70842190D01*
X122483523Y-71318380D02*
X121912095Y-71318380D01*
X122197809Y-71318380D02*
X122197809Y-70318380D01*
X122102571Y-70461238D01*
X122007333Y-70556476D01*
X121912095Y-70604095D01*
X122864476Y-70413619D02*
X122912095Y-70366000D01*
X123007333Y-70318380D01*
X123245428Y-70318380D01*
X123340666Y-70366000D01*
X123388285Y-70413619D01*
X123435904Y-70508857D01*
X123435904Y-70604095D01*
X123388285Y-70746952D01*
X122816857Y-71318380D01*
X123435904Y-71318380D01*
%TO.C,R11*%
X112592380Y-76588857D02*
X112116190Y-76922190D01*
X112592380Y-77160285D02*
X111592380Y-77160285D01*
X111592380Y-76779333D01*
X111640000Y-76684095D01*
X111687619Y-76636476D01*
X111782857Y-76588857D01*
X111925714Y-76588857D01*
X112020952Y-76636476D01*
X112068571Y-76684095D01*
X112116190Y-76779333D01*
X112116190Y-77160285D01*
X112592380Y-75636476D02*
X112592380Y-76207904D01*
X112592380Y-75922190D02*
X111592380Y-75922190D01*
X111735238Y-76017428D01*
X111830476Y-76112666D01*
X111878095Y-76207904D01*
X112592380Y-74684095D02*
X112592380Y-75255523D01*
X112592380Y-74969809D02*
X111592380Y-74969809D01*
X111735238Y-75065047D01*
X111830476Y-75160285D01*
X111878095Y-75255523D01*
%TO.C,R10*%
X127119142Y-64334380D02*
X126785809Y-63858190D01*
X126547714Y-64334380D02*
X126547714Y-63334380D01*
X126928666Y-63334380D01*
X127023904Y-63382000D01*
X127071523Y-63429619D01*
X127119142Y-63524857D01*
X127119142Y-63667714D01*
X127071523Y-63762952D01*
X127023904Y-63810571D01*
X126928666Y-63858190D01*
X126547714Y-63858190D01*
X128071523Y-64334380D02*
X127500095Y-64334380D01*
X127785809Y-64334380D02*
X127785809Y-63334380D01*
X127690571Y-63477238D01*
X127595333Y-63572476D01*
X127500095Y-63620095D01*
X128690571Y-63334380D02*
X128785809Y-63334380D01*
X128881047Y-63382000D01*
X128928666Y-63429619D01*
X128976285Y-63524857D01*
X129023904Y-63715333D01*
X129023904Y-63953428D01*
X128976285Y-64143904D01*
X128928666Y-64239142D01*
X128881047Y-64286761D01*
X128785809Y-64334380D01*
X128690571Y-64334380D01*
X128595333Y-64286761D01*
X128547714Y-64239142D01*
X128500095Y-64143904D01*
X128452476Y-63953428D01*
X128452476Y-63715333D01*
X128500095Y-63524857D01*
X128547714Y-63429619D01*
X128595333Y-63382000D01*
X128690571Y-63334380D01*
%TO.C,R9*%
X122085833Y-64334380D02*
X121752500Y-63858190D01*
X121514404Y-64334380D02*
X121514404Y-63334380D01*
X121895357Y-63334380D01*
X121990595Y-63382000D01*
X122038214Y-63429619D01*
X122085833Y-63524857D01*
X122085833Y-63667714D01*
X122038214Y-63762952D01*
X121990595Y-63810571D01*
X121895357Y-63858190D01*
X121514404Y-63858190D01*
X122562023Y-64334380D02*
X122752500Y-64334380D01*
X122847738Y-64286761D01*
X122895357Y-64239142D01*
X122990595Y-64096285D01*
X123038214Y-63905809D01*
X123038214Y-63524857D01*
X122990595Y-63429619D01*
X122942976Y-63382000D01*
X122847738Y-63334380D01*
X122657261Y-63334380D01*
X122562023Y-63382000D01*
X122514404Y-63429619D01*
X122466785Y-63524857D01*
X122466785Y-63762952D01*
X122514404Y-63858190D01*
X122562023Y-63905809D01*
X122657261Y-63953428D01*
X122847738Y-63953428D01*
X122942976Y-63905809D01*
X122990595Y-63858190D01*
X123038214Y-63762952D01*
%TO.C,R8*%
X125563333Y-90242380D02*
X125230000Y-89766190D01*
X124991904Y-90242380D02*
X124991904Y-89242380D01*
X125372857Y-89242380D01*
X125468095Y-89290000D01*
X125515714Y-89337619D01*
X125563333Y-89432857D01*
X125563333Y-89575714D01*
X125515714Y-89670952D01*
X125468095Y-89718571D01*
X125372857Y-89766190D01*
X124991904Y-89766190D01*
X126134761Y-89670952D02*
X126039523Y-89623333D01*
X125991904Y-89575714D01*
X125944285Y-89480476D01*
X125944285Y-89432857D01*
X125991904Y-89337619D01*
X126039523Y-89290000D01*
X126134761Y-89242380D01*
X126325238Y-89242380D01*
X126420476Y-89290000D01*
X126468095Y-89337619D01*
X126515714Y-89432857D01*
X126515714Y-89480476D01*
X126468095Y-89575714D01*
X126420476Y-89623333D01*
X126325238Y-89670952D01*
X126134761Y-89670952D01*
X126039523Y-89718571D01*
X125991904Y-89766190D01*
X125944285Y-89861428D01*
X125944285Y-90051904D01*
X125991904Y-90147142D01*
X126039523Y-90194761D01*
X126134761Y-90242380D01*
X126325238Y-90242380D01*
X126420476Y-90194761D01*
X126468095Y-90147142D01*
X126515714Y-90051904D01*
X126515714Y-89861428D01*
X126468095Y-89766190D01*
X126420476Y-89718571D01*
X126325238Y-89670952D01*
%TO.C,R7*%
X120483333Y-90242380D02*
X120150000Y-89766190D01*
X119911904Y-90242380D02*
X119911904Y-89242380D01*
X120292857Y-89242380D01*
X120388095Y-89290000D01*
X120435714Y-89337619D01*
X120483333Y-89432857D01*
X120483333Y-89575714D01*
X120435714Y-89670952D01*
X120388095Y-89718571D01*
X120292857Y-89766190D01*
X119911904Y-89766190D01*
X120816666Y-89242380D02*
X121483333Y-89242380D01*
X121054761Y-90242380D01*
%TO.C,R6*%
X150438380Y-68063166D02*
X149962190Y-68396500D01*
X150438380Y-68634595D02*
X149438380Y-68634595D01*
X149438380Y-68253642D01*
X149486000Y-68158404D01*
X149533619Y-68110785D01*
X149628857Y-68063166D01*
X149771714Y-68063166D01*
X149866952Y-68110785D01*
X149914571Y-68158404D01*
X149962190Y-68253642D01*
X149962190Y-68634595D01*
X149438380Y-67206023D02*
X149438380Y-67396500D01*
X149486000Y-67491738D01*
X149533619Y-67539357D01*
X149676476Y-67634595D01*
X149866952Y-67682214D01*
X150247904Y-67682214D01*
X150343142Y-67634595D01*
X150390761Y-67586976D01*
X150438380Y-67491738D01*
X150438380Y-67301261D01*
X150390761Y-67206023D01*
X150343142Y-67158404D01*
X150247904Y-67110785D01*
X150009809Y-67110785D01*
X149914571Y-67158404D01*
X149866952Y-67206023D01*
X149819333Y-67301261D01*
X149819333Y-67491738D01*
X149866952Y-67586976D01*
X149914571Y-67634595D01*
X150009809Y-67682214D01*
%TO.C,R5*%
X114641333Y-65730380D02*
X114308000Y-65254190D01*
X114069904Y-65730380D02*
X114069904Y-64730380D01*
X114450857Y-64730380D01*
X114546095Y-64778000D01*
X114593714Y-64825619D01*
X114641333Y-64920857D01*
X114641333Y-65063714D01*
X114593714Y-65158952D01*
X114546095Y-65206571D01*
X114450857Y-65254190D01*
X114069904Y-65254190D01*
X115546095Y-64730380D02*
X115069904Y-64730380D01*
X115022285Y-65206571D01*
X115069904Y-65158952D01*
X115165142Y-65111333D01*
X115403238Y-65111333D01*
X115498476Y-65158952D01*
X115546095Y-65206571D01*
X115593714Y-65301809D01*
X115593714Y-65539904D01*
X115546095Y-65635142D01*
X115498476Y-65682761D01*
X115403238Y-65730380D01*
X115165142Y-65730380D01*
X115069904Y-65682761D01*
X115022285Y-65635142D01*
%TO.C,R4*%
X146723833Y-64840380D02*
X146390500Y-64364190D01*
X146152404Y-64840380D02*
X146152404Y-63840380D01*
X146533357Y-63840380D01*
X146628595Y-63888000D01*
X146676214Y-63935619D01*
X146723833Y-64030857D01*
X146723833Y-64173714D01*
X146676214Y-64268952D01*
X146628595Y-64316571D01*
X146533357Y-64364190D01*
X146152404Y-64364190D01*
X147580976Y-64173714D02*
X147580976Y-64840380D01*
X147342880Y-63792761D02*
X147104785Y-64507047D01*
X147723833Y-64507047D01*
%TO.C,R3*%
X141565333Y-64968380D02*
X141232000Y-64492190D01*
X140993904Y-64968380D02*
X140993904Y-63968380D01*
X141374857Y-63968380D01*
X141470095Y-64016000D01*
X141517714Y-64063619D01*
X141565333Y-64158857D01*
X141565333Y-64301714D01*
X141517714Y-64396952D01*
X141470095Y-64444571D01*
X141374857Y-64492190D01*
X140993904Y-64492190D01*
X141898666Y-63968380D02*
X142517714Y-63968380D01*
X142184380Y-64349333D01*
X142327238Y-64349333D01*
X142422476Y-64396952D01*
X142470095Y-64444571D01*
X142517714Y-64539809D01*
X142517714Y-64777904D01*
X142470095Y-64873142D01*
X142422476Y-64920761D01*
X142327238Y-64968380D01*
X142041523Y-64968380D01*
X141946285Y-64920761D01*
X141898666Y-64873142D01*
%TO.C,R2*%
X123785333Y-61158380D02*
X123452000Y-60682190D01*
X123213904Y-61158380D02*
X123213904Y-60158380D01*
X123594857Y-60158380D01*
X123690095Y-60206000D01*
X123737714Y-60253619D01*
X123785333Y-60348857D01*
X123785333Y-60491714D01*
X123737714Y-60586952D01*
X123690095Y-60634571D01*
X123594857Y-60682190D01*
X123213904Y-60682190D01*
X124166285Y-60253619D02*
X124213904Y-60206000D01*
X124309142Y-60158380D01*
X124547238Y-60158380D01*
X124642476Y-60206000D01*
X124690095Y-60253619D01*
X124737714Y-60348857D01*
X124737714Y-60444095D01*
X124690095Y-60586952D01*
X124118666Y-61158380D01*
X124737714Y-61158380D01*
%TO.C,R1*%
X118783833Y-61032380D02*
X118450500Y-60556190D01*
X118212404Y-61032380D02*
X118212404Y-60032380D01*
X118593357Y-60032380D01*
X118688595Y-60080000D01*
X118736214Y-60127619D01*
X118783833Y-60222857D01*
X118783833Y-60365714D01*
X118736214Y-60460952D01*
X118688595Y-60508571D01*
X118593357Y-60556190D01*
X118212404Y-60556190D01*
X119736214Y-61032380D02*
X119164785Y-61032380D01*
X119450500Y-61032380D02*
X119450500Y-60032380D01*
X119355261Y-60175238D01*
X119260023Y-60270476D01*
X119164785Y-60318095D01*
%TO.C,MK1*%
X113442380Y-83605523D02*
X112442380Y-83605523D01*
X113156666Y-83272190D01*
X112442380Y-82938857D01*
X113442380Y-82938857D01*
X113442380Y-82462666D02*
X112442380Y-82462666D01*
X113442380Y-81891238D02*
X112870952Y-82319809D01*
X112442380Y-81891238D02*
X113013809Y-82462666D01*
X113442380Y-80938857D02*
X113442380Y-81510285D01*
X113442380Y-81224571D02*
X112442380Y-81224571D01*
X112585238Y-81319809D01*
X112680476Y-81415047D01*
X112728095Y-81510285D01*
%TO.C,J1*%
X93900380Y-52363333D02*
X94614666Y-52363333D01*
X94757523Y-52410952D01*
X94852761Y-52506190D01*
X94900380Y-52649047D01*
X94900380Y-52744285D01*
X94900380Y-51363333D02*
X94900380Y-51934761D01*
X94900380Y-51649047D02*
X93900380Y-51649047D01*
X94043238Y-51744285D01*
X94138476Y-51839523D01*
X94186095Y-51934761D01*
%TO.C,D6*%
X101115904Y-77326380D02*
X101115904Y-76326380D01*
X101354000Y-76326380D01*
X101496857Y-76374000D01*
X101592095Y-76469238D01*
X101639714Y-76564476D01*
X101687333Y-76754952D01*
X101687333Y-76897809D01*
X101639714Y-77088285D01*
X101592095Y-77183523D01*
X101496857Y-77278761D01*
X101354000Y-77326380D01*
X101115904Y-77326380D01*
X102544476Y-76326380D02*
X102354000Y-76326380D01*
X102258761Y-76374000D01*
X102211142Y-76421619D01*
X102115904Y-76564476D01*
X102068285Y-76754952D01*
X102068285Y-77135904D01*
X102115904Y-77231142D01*
X102163523Y-77278761D01*
X102258761Y-77326380D01*
X102449238Y-77326380D01*
X102544476Y-77278761D01*
X102592095Y-77231142D01*
X102639714Y-77135904D01*
X102639714Y-76897809D01*
X102592095Y-76802571D01*
X102544476Y-76754952D01*
X102449238Y-76707333D01*
X102258761Y-76707333D01*
X102163523Y-76754952D01*
X102115904Y-76802571D01*
X102068285Y-76897809D01*
X97782095Y-77646380D02*
X97782095Y-76646380D01*
X98353523Y-77646380D02*
X97924952Y-77074952D01*
X98353523Y-76646380D02*
X97782095Y-77217809D01*
%TO.C,D5*%
X146835904Y-77326380D02*
X146835904Y-76326380D01*
X147074000Y-76326380D01*
X147216857Y-76374000D01*
X147312095Y-76469238D01*
X147359714Y-76564476D01*
X147407333Y-76754952D01*
X147407333Y-76897809D01*
X147359714Y-77088285D01*
X147312095Y-77183523D01*
X147216857Y-77278761D01*
X147074000Y-77326380D01*
X146835904Y-77326380D01*
X148312095Y-76326380D02*
X147835904Y-76326380D01*
X147788285Y-76802571D01*
X147835904Y-76754952D01*
X147931142Y-76707333D01*
X148169238Y-76707333D01*
X148264476Y-76754952D01*
X148312095Y-76802571D01*
X148359714Y-76897809D01*
X148359714Y-77135904D01*
X148312095Y-77231142D01*
X148264476Y-77278761D01*
X148169238Y-77326380D01*
X147931142Y-77326380D01*
X147835904Y-77278761D01*
X147788285Y-77231142D01*
X143502095Y-77646380D02*
X143502095Y-76646380D01*
X144073523Y-77646380D02*
X143644952Y-77074952D01*
X144073523Y-76646380D02*
X143502095Y-77217809D01*
%TO.C,D4*%
X91296380Y-79732095D02*
X90296380Y-79732095D01*
X90296380Y-79494000D01*
X90344000Y-79351142D01*
X90439238Y-79255904D01*
X90534476Y-79208285D01*
X90724952Y-79160666D01*
X90867809Y-79160666D01*
X91058285Y-79208285D01*
X91153523Y-79255904D01*
X91248761Y-79351142D01*
X91296380Y-79494000D01*
X91296380Y-79732095D01*
X90629714Y-78303523D02*
X91296380Y-78303523D01*
X90248761Y-78541619D02*
X90963047Y-78779714D01*
X90963047Y-78160666D01*
X91616380Y-83065904D02*
X90616380Y-83065904D01*
X91616380Y-82494476D02*
X91044952Y-82923047D01*
X90616380Y-82494476D02*
X91187809Y-83065904D01*
%TO.C,D3*%
X136254380Y-79986095D02*
X135254380Y-79986095D01*
X135254380Y-79748000D01*
X135302000Y-79605142D01*
X135397238Y-79509904D01*
X135492476Y-79462285D01*
X135682952Y-79414666D01*
X135825809Y-79414666D01*
X136016285Y-79462285D01*
X136111523Y-79509904D01*
X136206761Y-79605142D01*
X136254380Y-79748000D01*
X136254380Y-79986095D01*
X135254380Y-79081333D02*
X135254380Y-78462285D01*
X135635333Y-78795619D01*
X135635333Y-78652761D01*
X135682952Y-78557523D01*
X135730571Y-78509904D01*
X135825809Y-78462285D01*
X136063904Y-78462285D01*
X136159142Y-78509904D01*
X136206761Y-78557523D01*
X136254380Y-78652761D01*
X136254380Y-78938476D01*
X136206761Y-79033714D01*
X136159142Y-79081333D01*
X136574380Y-83319904D02*
X135574380Y-83319904D01*
X136574380Y-82748476D02*
X136002952Y-83177047D01*
X135574380Y-82748476D02*
X136145809Y-83319904D01*
%TO.C,D2*%
X123828380Y-42648095D02*
X122828380Y-42648095D01*
X122828380Y-42410000D01*
X122876000Y-42267142D01*
X122971238Y-42171904D01*
X123066476Y-42124285D01*
X123256952Y-42076666D01*
X123399809Y-42076666D01*
X123590285Y-42124285D01*
X123685523Y-42171904D01*
X123780761Y-42267142D01*
X123828380Y-42410000D01*
X123828380Y-42648095D01*
X122923619Y-41695714D02*
X122876000Y-41648095D01*
X122828380Y-41552857D01*
X122828380Y-41314761D01*
X122876000Y-41219523D01*
X122923619Y-41171904D01*
X123018857Y-41124285D01*
X123114095Y-41124285D01*
X123256952Y-41171904D01*
X123828380Y-41743333D01*
X123828380Y-41124285D01*
%TO.C,D1*%
X98428380Y-42648095D02*
X97428380Y-42648095D01*
X97428380Y-42410000D01*
X97476000Y-42267142D01*
X97571238Y-42171904D01*
X97666476Y-42124285D01*
X97856952Y-42076666D01*
X97999809Y-42076666D01*
X98190285Y-42124285D01*
X98285523Y-42171904D01*
X98380761Y-42267142D01*
X98428380Y-42410000D01*
X98428380Y-42648095D01*
X98428380Y-41124285D02*
X98428380Y-41695714D01*
X98428380Y-41410000D02*
X97428380Y-41410000D01*
X97571238Y-41505238D01*
X97666476Y-41600476D01*
X97714095Y-41695714D01*
%TO.C,C13*%
X104371142Y-83446857D02*
X104418761Y-83494476D01*
X104466380Y-83637333D01*
X104466380Y-83732571D01*
X104418761Y-83875428D01*
X104323523Y-83970666D01*
X104228285Y-84018285D01*
X104037809Y-84065904D01*
X103894952Y-84065904D01*
X103704476Y-84018285D01*
X103609238Y-83970666D01*
X103514000Y-83875428D01*
X103466380Y-83732571D01*
X103466380Y-83637333D01*
X103514000Y-83494476D01*
X103561619Y-83446857D01*
X104466380Y-82494476D02*
X104466380Y-83065904D01*
X104466380Y-82780190D02*
X103466380Y-82780190D01*
X103609238Y-82875428D01*
X103704476Y-82970666D01*
X103752095Y-83065904D01*
X103466380Y-82161142D02*
X103466380Y-81542095D01*
X103847333Y-81875428D01*
X103847333Y-81732571D01*
X103894952Y-81637333D01*
X103942571Y-81589714D01*
X104037809Y-81542095D01*
X104275904Y-81542095D01*
X104371142Y-81589714D01*
X104418761Y-81637333D01*
X104466380Y-81732571D01*
X104466380Y-82018285D01*
X104418761Y-82113523D01*
X104371142Y-82161142D01*
%TO.C,C12*%
X150091142Y-83446857D02*
X150138761Y-83494476D01*
X150186380Y-83637333D01*
X150186380Y-83732571D01*
X150138761Y-83875428D01*
X150043523Y-83970666D01*
X149948285Y-84018285D01*
X149757809Y-84065904D01*
X149614952Y-84065904D01*
X149424476Y-84018285D01*
X149329238Y-83970666D01*
X149234000Y-83875428D01*
X149186380Y-83732571D01*
X149186380Y-83637333D01*
X149234000Y-83494476D01*
X149281619Y-83446857D01*
X150186380Y-82494476D02*
X150186380Y-83065904D01*
X150186380Y-82780190D02*
X149186380Y-82780190D01*
X149329238Y-82875428D01*
X149424476Y-82970666D01*
X149472095Y-83065904D01*
X149281619Y-82113523D02*
X149234000Y-82065904D01*
X149186380Y-81970666D01*
X149186380Y-81732571D01*
X149234000Y-81637333D01*
X149281619Y-81589714D01*
X149376857Y-81542095D01*
X149472095Y-81542095D01*
X149614952Y-81589714D01*
X150186380Y-82161142D01*
X150186380Y-81542095D01*
%TO.C,C11*%
X115039142Y-85908357D02*
X115086761Y-85955976D01*
X115134380Y-86098833D01*
X115134380Y-86194071D01*
X115086761Y-86336928D01*
X114991523Y-86432166D01*
X114896285Y-86479785D01*
X114705809Y-86527404D01*
X114562952Y-86527404D01*
X114372476Y-86479785D01*
X114277238Y-86432166D01*
X114182000Y-86336928D01*
X114134380Y-86194071D01*
X114134380Y-86098833D01*
X114182000Y-85955976D01*
X114229619Y-85908357D01*
X115134380Y-84955976D02*
X115134380Y-85527404D01*
X115134380Y-85241690D02*
X114134380Y-85241690D01*
X114277238Y-85336928D01*
X114372476Y-85432166D01*
X114420095Y-85527404D01*
X115134380Y-84003595D02*
X115134380Y-84575023D01*
X115134380Y-84289309D02*
X114134380Y-84289309D01*
X114277238Y-84384547D01*
X114372476Y-84479785D01*
X114420095Y-84575023D01*
%TO.C,C10*%
X131437142Y-72367142D02*
X131389523Y-72414761D01*
X131246666Y-72462380D01*
X131151428Y-72462380D01*
X131008571Y-72414761D01*
X130913333Y-72319523D01*
X130865714Y-72224285D01*
X130818095Y-72033809D01*
X130818095Y-71890952D01*
X130865714Y-71700476D01*
X130913333Y-71605238D01*
X131008571Y-71510000D01*
X131151428Y-71462380D01*
X131246666Y-71462380D01*
X131389523Y-71510000D01*
X131437142Y-71557619D01*
X132389523Y-72462380D02*
X131818095Y-72462380D01*
X132103809Y-72462380D02*
X132103809Y-71462380D01*
X132008571Y-71605238D01*
X131913333Y-71700476D01*
X131818095Y-71748095D01*
X133008571Y-71462380D02*
X133103809Y-71462380D01*
X133199047Y-71510000D01*
X133246666Y-71557619D01*
X133294285Y-71652857D01*
X133341904Y-71843333D01*
X133341904Y-72081428D01*
X133294285Y-72271904D01*
X133246666Y-72367142D01*
X133199047Y-72414761D01*
X133103809Y-72462380D01*
X133008571Y-72462380D01*
X132913333Y-72414761D01*
X132865714Y-72367142D01*
X132818095Y-72271904D01*
X132770476Y-72081428D01*
X132770476Y-71843333D01*
X132818095Y-71652857D01*
X132865714Y-71557619D01*
X132913333Y-71510000D01*
X133008571Y-71462380D01*
%TO.C,C9*%
X130643333Y-84939142D02*
X130595714Y-84986761D01*
X130452857Y-85034380D01*
X130357619Y-85034380D01*
X130214761Y-84986761D01*
X130119523Y-84891523D01*
X130071904Y-84796285D01*
X130024285Y-84605809D01*
X130024285Y-84462952D01*
X130071904Y-84272476D01*
X130119523Y-84177238D01*
X130214761Y-84082000D01*
X130357619Y-84034380D01*
X130452857Y-84034380D01*
X130595714Y-84082000D01*
X130643333Y-84129619D01*
X131119523Y-85034380D02*
X131310000Y-85034380D01*
X131405238Y-84986761D01*
X131452857Y-84939142D01*
X131548095Y-84796285D01*
X131595714Y-84605809D01*
X131595714Y-84224857D01*
X131548095Y-84129619D01*
X131500476Y-84082000D01*
X131405238Y-84034380D01*
X131214761Y-84034380D01*
X131119523Y-84082000D01*
X131071904Y-84129619D01*
X131024285Y-84224857D01*
X131024285Y-84462952D01*
X131071904Y-84558190D01*
X131119523Y-84605809D01*
X131214761Y-84653428D01*
X131405238Y-84653428D01*
X131500476Y-84605809D01*
X131548095Y-84558190D01*
X131595714Y-84462952D01*
%TO.C,C8*%
X126754833Y-71095142D02*
X126707214Y-71142761D01*
X126564357Y-71190380D01*
X126469119Y-71190380D01*
X126326261Y-71142761D01*
X126231023Y-71047523D01*
X126183404Y-70952285D01*
X126135785Y-70761809D01*
X126135785Y-70618952D01*
X126183404Y-70428476D01*
X126231023Y-70333238D01*
X126326261Y-70238000D01*
X126469119Y-70190380D01*
X126564357Y-70190380D01*
X126707214Y-70238000D01*
X126754833Y-70285619D01*
X127326261Y-70618952D02*
X127231023Y-70571333D01*
X127183404Y-70523714D01*
X127135785Y-70428476D01*
X127135785Y-70380857D01*
X127183404Y-70285619D01*
X127231023Y-70238000D01*
X127326261Y-70190380D01*
X127516738Y-70190380D01*
X127611976Y-70238000D01*
X127659595Y-70285619D01*
X127707214Y-70380857D01*
X127707214Y-70428476D01*
X127659595Y-70523714D01*
X127611976Y-70571333D01*
X127516738Y-70618952D01*
X127326261Y-70618952D01*
X127231023Y-70666571D01*
X127183404Y-70714190D01*
X127135785Y-70809428D01*
X127135785Y-70999904D01*
X127183404Y-71095142D01*
X127231023Y-71142761D01*
X127326261Y-71190380D01*
X127516738Y-71190380D01*
X127611976Y-71142761D01*
X127659595Y-71095142D01*
X127707214Y-70999904D01*
X127707214Y-70809428D01*
X127659595Y-70714190D01*
X127611976Y-70666571D01*
X127516738Y-70618952D01*
%TO.C,C7*%
X114149142Y-78906666D02*
X114196761Y-78954285D01*
X114244380Y-79097142D01*
X114244380Y-79192380D01*
X114196761Y-79335238D01*
X114101523Y-79430476D01*
X114006285Y-79478095D01*
X113815809Y-79525714D01*
X113672952Y-79525714D01*
X113482476Y-79478095D01*
X113387238Y-79430476D01*
X113292000Y-79335238D01*
X113244380Y-79192380D01*
X113244380Y-79097142D01*
X113292000Y-78954285D01*
X113339619Y-78906666D01*
X113244380Y-78573333D02*
X113244380Y-77906666D01*
X114244380Y-78335238D01*
%TO.C,C6*%
X133071142Y-78731166D02*
X133118761Y-78778785D01*
X133166380Y-78921642D01*
X133166380Y-79016880D01*
X133118761Y-79159738D01*
X133023523Y-79254976D01*
X132928285Y-79302595D01*
X132737809Y-79350214D01*
X132594952Y-79350214D01*
X132404476Y-79302595D01*
X132309238Y-79254976D01*
X132214000Y-79159738D01*
X132166380Y-79016880D01*
X132166380Y-78921642D01*
X132214000Y-78778785D01*
X132261619Y-78731166D01*
X132166380Y-77874023D02*
X132166380Y-78064500D01*
X132214000Y-78159738D01*
X132261619Y-78207357D01*
X132404476Y-78302595D01*
X132594952Y-78350214D01*
X132975904Y-78350214D01*
X133071142Y-78302595D01*
X133118761Y-78254976D01*
X133166380Y-78159738D01*
X133166380Y-77969261D01*
X133118761Y-77874023D01*
X133071142Y-77826404D01*
X132975904Y-77778785D01*
X132737809Y-77778785D01*
X132642571Y-77826404D01*
X132594952Y-77874023D01*
X132547333Y-77969261D01*
X132547333Y-78159738D01*
X132594952Y-78254976D01*
X132642571Y-78302595D01*
X132737809Y-78350214D01*
%TO.C,C5*%
X131834833Y-68809142D02*
X131787214Y-68856761D01*
X131644357Y-68904380D01*
X131549119Y-68904380D01*
X131406261Y-68856761D01*
X131311023Y-68761523D01*
X131263404Y-68666285D01*
X131215785Y-68475809D01*
X131215785Y-68332952D01*
X131263404Y-68142476D01*
X131311023Y-68047238D01*
X131406261Y-67952000D01*
X131549119Y-67904380D01*
X131644357Y-67904380D01*
X131787214Y-67952000D01*
X131834833Y-67999619D01*
X132739595Y-67904380D02*
X132263404Y-67904380D01*
X132215785Y-68380571D01*
X132263404Y-68332952D01*
X132358642Y-68285333D01*
X132596738Y-68285333D01*
X132691976Y-68332952D01*
X132739595Y-68380571D01*
X132787214Y-68475809D01*
X132787214Y-68713904D01*
X132739595Y-68809142D01*
X132691976Y-68856761D01*
X132596738Y-68904380D01*
X132358642Y-68904380D01*
X132263404Y-68856761D01*
X132215785Y-68809142D01*
%TO.C,C4*%
X106434833Y-64619142D02*
X106387214Y-64666761D01*
X106244357Y-64714380D01*
X106149119Y-64714380D01*
X106006261Y-64666761D01*
X105911023Y-64571523D01*
X105863404Y-64476285D01*
X105815785Y-64285809D01*
X105815785Y-64142952D01*
X105863404Y-63952476D01*
X105911023Y-63857238D01*
X106006261Y-63762000D01*
X106149119Y-63714380D01*
X106244357Y-63714380D01*
X106387214Y-63762000D01*
X106434833Y-63809619D01*
X107291976Y-64047714D02*
X107291976Y-64714380D01*
X107053880Y-63666761D02*
X106815785Y-64381047D01*
X107434833Y-64381047D01*
%TO.C,C3*%
X93955142Y-39107166D02*
X94002761Y-39154785D01*
X94050380Y-39297642D01*
X94050380Y-39392880D01*
X94002761Y-39535738D01*
X93907523Y-39630976D01*
X93812285Y-39678595D01*
X93621809Y-39726214D01*
X93478952Y-39726214D01*
X93288476Y-39678595D01*
X93193238Y-39630976D01*
X93098000Y-39535738D01*
X93050380Y-39392880D01*
X93050380Y-39297642D01*
X93098000Y-39154785D01*
X93145619Y-39107166D01*
X93050380Y-38773833D02*
X93050380Y-38154785D01*
X93431333Y-38488119D01*
X93431333Y-38345261D01*
X93478952Y-38250023D01*
X93526571Y-38202404D01*
X93621809Y-38154785D01*
X93859904Y-38154785D01*
X93955142Y-38202404D01*
X94002761Y-38250023D01*
X94050380Y-38345261D01*
X94050380Y-38630976D01*
X94002761Y-38726214D01*
X93955142Y-38773833D01*
%TO.C,C2*%
X131834833Y-65507142D02*
X131787214Y-65554761D01*
X131644357Y-65602380D01*
X131549119Y-65602380D01*
X131406261Y-65554761D01*
X131311023Y-65459523D01*
X131263404Y-65364285D01*
X131215785Y-65173809D01*
X131215785Y-65030952D01*
X131263404Y-64840476D01*
X131311023Y-64745238D01*
X131406261Y-64650000D01*
X131549119Y-64602380D01*
X131644357Y-64602380D01*
X131787214Y-64650000D01*
X131834833Y-64697619D01*
X132215785Y-64697619D02*
X132263404Y-64650000D01*
X132358642Y-64602380D01*
X132596738Y-64602380D01*
X132691976Y-64650000D01*
X132739595Y-64697619D01*
X132787214Y-64792857D01*
X132787214Y-64888095D01*
X132739595Y-65030952D01*
X132168166Y-65602380D01*
X132787214Y-65602380D01*
%TO.C,C1*%
X106434833Y-68047142D02*
X106387214Y-68094761D01*
X106244357Y-68142380D01*
X106149119Y-68142380D01*
X106006261Y-68094761D01*
X105911023Y-67999523D01*
X105863404Y-67904285D01*
X105815785Y-67713809D01*
X105815785Y-67570952D01*
X105863404Y-67380476D01*
X105911023Y-67285238D01*
X106006261Y-67190000D01*
X106149119Y-67142380D01*
X106244357Y-67142380D01*
X106387214Y-67190000D01*
X106434833Y-67237619D01*
X107387214Y-68142380D02*
X106815785Y-68142380D01*
X107101500Y-68142380D02*
X107101500Y-67142380D01*
X107006261Y-67285238D01*
X106911023Y-67380476D01*
X106815785Y-67428095D01*
%TD*%
M02*
